<?xml version="1.0" encoding="utf-8"?>
<!-- Generator: Adobe Illustrator 25.3.0, SVG Export Plug-In . SVG Version: 6.00 Build 0)  -->
<svg version="1.1" id="Layer_1" xmlns="http://www.w3.org/2000/svg" xmlns:xlink="http://www.w3.org/1999/xlink" x="0px" y="0px"
	 viewBox="0 0 50 50" style="enable-background:new 0 0 50 50;" xml:space="preserve">
<style type="text/css">
	.st0{fill:#008CFF;}
</style>
<path class="st0" d="M30.3,13.7L25,8.4l-5.3,5.3l-1.4-1.4L25,5.6l6.7,6.7L30.3,13.7z"/>
<path class="st0" d="M24,7h2v21h-2V7z"/>
<path class="st0" d="M35,40H15c-1.7,0-3-1.3-3-3V19c0-1.7,1.3-3,3-3h7v2h-7c-0.6,0-1,0.4-1,1v18c0,0.6,0.4,1,1,1h20c0.6,0,1-0.4,1-1
	V19c0-0.6-0.4-1-1-1h-7v-2h7c1.7,0,3,1.3,3,3v18C38,38.7,36.7,40,35,40z"/>
</svg>
