<?xml version="1.0" encoding="utf-8"?>
<!-- Generator: Adobe Illustrator 25.3.0, SVG Export Plug-In . SVG Version: 6.00 Build 0)  -->
<svg version="1.1" id="Layer_1" xmlns="http://www.w3.org/2000/svg" xmlns:xlink="http://www.w3.org/1999/xlink" x="0px" y="0px"
	 viewBox="0 0 2048 2048" style="enable-background:new 0 0 2048 2048;" xml:space="preserve">
<style type="text/css">
	.st0{fill:#EEEEEE;}
	.st1{fill:url(#SVGID_1_);}
	.st2{opacity:0.1;fill:url(#SVGID_2_);}
	.st3{fill:#FFFFFF;}
	.st4{fill:#ED3B29;}
</style>
<g>
	<path class="st0" d="M1858.46,1516.46c0,188.24-154.02,342.26-342.26,342.26H531.8c-188.24,0-342.26-154.02-342.26-342.26v-984.4
		c0-188.24,154.02-342.26,342.26-342.26h984.4c188.24,0,342.26,154.02,342.26,342.26V1516.46z"/>
	<radialGradient id="SVGID_1_" cx="1017.0117" cy="682.3769" r="1446.2312" gradientUnits="userSpaceOnUse">
		<stop  offset="0" style="stop-color:#41DFF1"/>
		<stop  offset="0.89" style="stop-color:#006BF5"/>
	</radialGradient>
	<path class="st1" d="M1023.58,1772.07c-413.24,0-748.24-335-748.24-748.24c0-413.24,335-748.24,748.24-748.24
		s748.24,335,748.24,748.24C1771.82,1437.08,1436.82,1772.07,1023.58,1772.07z"/>
	<radialGradient id="SVGID_2_" cx="1023.5783" cy="1023.8317" r="726.912" gradientUnits="userSpaceOnUse">
		<stop  offset="0.7648" style="stop-color:#000000;stop-opacity:0"/>
		<stop  offset="1" style="stop-color:#000000"/>
	</radialGradient>
	<path class="st2" d="M1023.58,1772.07c-413.24,0-748.24-335-748.24-748.24c0-413.24,335-748.24,748.24-748.24
		s748.24,335,748.24,748.24C1771.82,1437.08,1436.82,1772.07,1023.58,1772.07z"/>
	<g>
		<path class="st3" d="M1023.58,352.75c-0.19,0-0.37,0-0.56,0c-0.07,0-0.13,0-0.2,0c-0.12,0-0.24,0-0.36,0c-0.07,0-0.16,0-0.22,0
			c-0.11,0-0.23,0-0.34,0c-0.07,0-0.16,0-0.23,0c-0.11,0-0.23,0-0.34,0c-0.09,0-0.14,0-0.23,0c-0.11,0-0.22,0-0.34,0
			c-0.07,0-0.16,0-0.23,0c-0.11,0-0.22,0-0.33,0c-0.07,0-0.17,0-0.23,0c-0.11,0-0.22,0-0.33,0c-0.09,0-0.14,0-0.23,0
			c-0.11,0-0.22,0-0.34,0c-0.07,0-0.17,0-0.24,0c-0.11,0-0.22,0-0.33,0c-0.07,0-0.16,0-0.23,0c-0.12,0-0.23,0-0.35,0
			c-0.09,0-0.12,0-0.22,0c-0.12,0-0.24,0-0.36,0c-0.07,0-0.14,0-0.21,0c-0.12,0-0.24,0-0.36,0c-0.07,0-0.14,0-0.21,0
			c-0.13,0-0.26,0-0.39,0c-0.07,0-0.11,0-0.17,0c-0.17,0-0.34,0-0.51,0.01c-0.02,0-0.03,0-0.05,0c-0.19,0-0.37,0-0.56,0.01
			c-0.07,0-0.15,0-0.21,0c-0.11,0-0.22,0-0.34,0c-0.11,0-0.19,0-0.3,0c-0.08,0-0.17,0-0.25,0c-0.09,0-0.24,0-0.33,0
			c-0.07,0-0.15,0-0.22,0c-0.11,0-0.24,0-0.35,0.01c-0.07,0-0.14,0-0.2,0c-0.11,0-0.26,0-0.38,0.01c-0.05,0-0.11,0-0.16,0
			c-0.14,0-0.28,0-0.42,0.01c-0.04,0-0.08,0-0.11,0c-0.16,0-0.3,0.01-0.46,0.01c-0.02,0-0.04,0-0.06,0c-0.18,0-0.32,0.01-0.5,0.01
			c0,0-0.01,0-0.01,0c-1.85,0.04-3.69,0.08-5.54,0.13l4.02,148.29c4.81-0.13,9.7-0.2,14.52-0.2V352.75L1023.58,352.75
			L1023.58,352.75z M912.81,361.85c-1.25,0.21-2.49,0.42-3.74,0.63c-0.06,0.01-0.13,0.02-0.19,0.03c-0.09,0.01-0.17,0.03-0.25,0.04
			c-0.11,0.02-0.21,0.04-0.32,0.06c-0.04,0.01-0.14,0.02-0.19,0.03c-0.14,0.02-0.27,0.05-0.41,0.07c-0.02,0-0.09,0.01-0.11,0.02
			c-0.17,0.03-0.33,0.06-0.5,0.09c-0.02,0-0.01,0-0.03,0.01c-4.18,0.73-8.36,1.5-12.51,2.31l28.36,145.61
			c4.7-0.91,9.47-1.78,14.2-2.56L912.81,361.85L912.81,361.85z M805.07,389.13c-0.85,0.29-1.7,0.59-2.55,0.88
			c-0.01,0-0.02,0.01-0.03,0.01c-0.14,0.05-0.27,0.09-0.41,0.14c-0.04,0.01-0.08,0.03-0.13,0.04c-0.12,0.04-0.22,0.08-0.34,0.12
			c-0.07,0.02-0.13,0.05-0.2,0.07c-0.1,0.04-0.19,0.07-0.29,0.1c-0.09,0.03-0.17,0.06-0.25,0.09c-0.08,0.03-0.17,0.06-0.25,0.09
			c-0.11,0.04-0.21,0.07-0.32,0.11c-0.08,0.03-0.12,0.04-0.2,0.07c-0.16,0.06-0.32,0.11-0.49,0.17c-0.02,0.01-0.08,0.03-0.1,0.03
			c-0.15,0.05-0.29,0.1-0.44,0.16c-0.08,0.03-0.14,0.05-0.22,0.08c-0.1,0.03-0.19,0.07-0.29,0.1c-0.08,0.03-0.18,0.07-0.26,0.09
			c-0.08,0.03-0.16,0.06-0.24,0.08c-0.1,0.04-0.19,0.07-0.29,0.11c-0.07,0.02-0.14,0.05-0.2,0.07c-0.12,0.04-0.21,0.07-0.33,0.12
			c-0.05,0.02-0.1,0.04-0.16,0.06c-0.12,0.04-0.24,0.09-0.36,0.13c-0.03,0.01-0.07,0.02-0.1,0.04c-3.02,1.08-6,2.18-9,3.31
			l52.17,138.87c4.48-1.68,9.04-3.32,13.56-4.88L805.07,389.13L805.07,389.13z M703.37,433.93c-1.87,1.01-3.73,2.04-5.58,3.07
			c-0.02,0.01,0,0-0.02,0.01c-0.16,0.09-0.31,0.17-0.47,0.26c-0.02,0.01-0.03,0.02-0.05,0.03c-0.16,0.09-0.32,0.18-0.47,0.26
			l-0.01,0.01c-3.19,1.78-6.36,3.59-9.52,5.42c-0.02,0.01-0.02,0.01-0.04,0.02l74.47,128.3c4.14-2.41,8.38-4.79,12.59-7.07
			L703.37,433.93L703.37,433.93z M610.48,494.93c-1.22,0.95-2.43,1.91-3.64,2.87l-0.01,0.01c-0.14,0.11-0.28,0.22-0.42,0.33
			c-0.03,0.03-0.05,0.04-0.09,0.07c-0.11,0.09-0.23,0.18-0.34,0.27c-0.05,0.04-0.08,0.06-0.13,0.1c-0.1,0.08-0.2,0.16-0.3,0.24
			c-0.05,0.04-0.09,0.07-0.14,0.11c-0.1,0.08-0.19,0.15-0.29,0.23c-0.05,0.04-0.1,0.08-0.15,0.12c-0.1,0.08-0.21,0.17-0.31,0.25
			c-0.03,0.03-0.08,0.06-0.11,0.09c-0.14,0.11-0.28,0.23-0.42,0.34c-0.03,0.03-0.08,0.07-0.12,0.09c-0.1,0.08-0.2,0.16-0.3,0.24
			c-0.07,0.05-0.12,0.1-0.19,0.15c-0.08,0.06-0.15,0.12-0.23,0.19c-0.07,0.05-0.14,0.11-0.2,0.16c-0.07,0.06-0.15,0.12-0.22,0.18
			c-0.07,0.05-0.15,0.12-0.21,0.17c-0.07,0.05-0.13,0.11-0.2,0.16c-0.08,0.07-0.15,0.12-0.23,0.18c-0.06,0.05-0.12,0.1-0.19,0.15
			c-0.08,0.07-0.16,0.13-0.24,0.19c-0.05,0.04-0.1,0.08-0.15,0.12c-0.31,0.25-0.64,0.52-0.95,0.77c-0.04,0.03-0.08,0.06-0.11,0.09
			c-0.1,0.08-0.19,0.16-0.29,0.24c-0.04,0.03-0.08,0.06-0.12,0.1c-0.1,0.08-0.19,0.16-0.29,0.23c-0.04,0.03-0.08,0.07-0.12,0.1
			c-0.1,0.08-0.2,0.17-0.3,0.25c-0.03,0.02-0.06,0.05-0.09,0.07c-0.11,0.09-0.22,0.18-0.33,0.27c-0.01,0.01-0.02,0.02-0.03,0.03
			c-0.99,0.81-2,1.64-2.99,2.46l94.57,114.29c3.7-3.06,7.49-6.11,11.27-9.07L610.48,494.93L610.48,494.93z M528.87,570.38
			c-2.71,2.95-5.4,5.94-8.05,8.94c-0.01,0.01-0.03,0.03-0.04,0.04c-0.07,0.08-0.14,0.15-0.21,0.23c-0.06,0.06-0.11,0.13-0.17,0.19
			c-0.06,0.06-0.09,0.11-0.15,0.17c-0.08,0.09-0.16,0.19-0.25,0.28c-0.03,0.03-0.06,0.07-0.09,0.1c-0.11,0.12-0.21,0.24-0.32,0.36
			l-0.03,0.03c-1.02,1.16-2.03,2.32-3.04,3.48l112.04,97.23c3.15-3.63,6.39-7.26,9.63-10.8L528.87,570.38L528.87,570.38z
			 M460.76,658.2c-0.42,0.64-0.83,1.28-1.24,1.92c-0.02,0.04-0.03,0.05-0.06,0.09c-0.07,0.11-0.15,0.23-0.22,0.34
			c-0.05,0.07-0.08,0.13-0.13,0.2c-0.04,0.07-0.09,0.14-0.13,0.21c-0.06,0.09-0.13,0.21-0.19,0.29c-0.02,0.03-0.04,0.06-0.06,0.09
			c-1.89,2.94-3.75,5.89-5.6,8.86c-0.02,0.03-0.04,0.06-0.06,0.09c-0.06,0.09-0.13,0.2-0.18,0.29c-0.04,0.07-0.09,0.14-0.13,0.22
			c-0.04,0.07-0.09,0.14-0.13,0.21c-0.07,0.11-0.14,0.23-0.21,0.34c-0.02,0.04-0.03,0.05-0.05,0.09c-0.5,0.81-1,1.63-1.5,2.45
			l126.51,77.47c2.5-4.09,5.1-8.2,7.71-12.21L460.76,658.2L460.76,658.2z M408.06,756.04c-0.23,0.53-0.46,1.06-0.69,1.59l-0.01,0.01
			c-0.07,0.16-0.14,0.33-0.21,0.49c-0.01,0.02-0.02,0.05-0.03,0.07c-0.07,0.15-0.13,0.31-0.2,0.46c-0.01,0.02-0.02,0.04-0.03,0.06
			c-0.07,0.16-0.13,0.31-0.2,0.47c-0.01,0.02-0.02,0.04-0.02,0.06c-0.22,0.52-0.44,1.04-0.67,1.56c-0.02,0.04-0.03,0.08-0.05,0.12
			c-0.05,0.13-0.11,0.25-0.16,0.38c-0.02,0.04-0.05,0.13-0.07,0.17c-0.05,0.12-0.1,0.23-0.15,0.35c-0.02,0.06-0.04,0.1-0.07,0.16
			c-0.05,0.12-0.1,0.23-0.15,0.35c-0.02,0.06-0.04,0.1-0.07,0.16c-0.05,0.12-0.11,0.25-0.16,0.37c-0.02,0.06-0.03,0.08-0.06,0.14
			c-0.06,0.14-0.12,0.28-0.18,0.42c-0.01,0.02-0.03,0.07-0.04,0.09c-0.15,0.35-0.29,0.7-0.44,1.04c-0.01,0.02-0.01,0.03-0.02,0.05
			c-0.07,0.16-0.13,0.31-0.2,0.47c-0.01,0.02-0.03,0.07-0.04,0.09c-0.06,0.15-0.12,0.29-0.18,0.44c-0.01,0.02-0.03,0.07-0.04,0.09
			c-0.06,0.15-0.13,0.3-0.19,0.45c-0.01,0.02-0.02,0.04-0.02,0.06c-0.07,0.17-0.14,0.33-0.21,0.5l-0.01,0.01
			c-0.89,2.14-1.77,4.28-2.63,6.44l137.6,55.45c1.79-4.44,3.66-8.91,5.57-13.3L408.06,756.04L408.06,756.04z M372.32,861.27
			c-0.02,0.06-0.03,0.14-0.05,0.2c-0.02,0.09-0.05,0.19-0.07,0.28c-0.02,0.06-0.03,0.12-0.05,0.18c-0.03,0.14-0.07,0.27-0.1,0.41
			c-0.01,0.02-0.02,0.07-0.02,0.09c-1.38,5.6-2.69,11.23-3.94,16.88l144.9,31.8c1.03-4.67,2.13-9.39,3.29-14.03L372.32,861.27
			L372.32,861.27z M354.55,970.97l0,0.04c-0.01,0.16-0.02,0.32-0.04,0.48c0,0.04,0,0.03-0.01,0.08c-0.01,0.18-0.03,0.36-0.04,0.55
			l0,0.01c-0.04,0.57-0.09,1.14-0.13,1.71c0,0.04-0.01,0.12-0.01,0.16c-0.01,0.13-0.02,0.26-0.03,0.39
			c-0.01,0.09-0.01,0.16-0.02,0.25c-0.01,0.1-0.01,0.2-0.02,0.29c-0.01,0.09-0.01,0.21-0.02,0.3c-0.01,0.08-0.01,0.16-0.02,0.24
			c-0.01,0.11-0.02,0.23-0.02,0.34c0,0.07-0.01,0.13-0.01,0.2c-0.01,0.13-0.02,0.23-0.03,0.36c0,0.06-0.01,0.11-0.01,0.17
			c-0.01,0.13-0.02,0.27-0.03,0.4c0,0.04-0.01,0.08-0.01,0.12c-0.01,0.16-0.02,0.29-0.03,0.44c0,0.02,0,0.05,0,0.07
			c-0.27,3.96-0.51,7.93-0.71,11.91l148.16,7.47c0.24-4.8,0.55-9.67,0.93-14.45L354.55,970.97L354.55,970.97z M502.8,1069.41
			l-147.8,12.72c0.53,6.17,1.15,12.33,1.84,18.45l147.4-16.78C503.69,1079.04,503.21,1074.2,502.8,1069.41L502.8,1069.41z
			 M517.32,1154.69l-143.66,36.99c0.53,2.06,1.07,4.12,1.62,6.17l0,0.01c0.05,0.18,0.09,0.35,0.14,0.53
			c0.01,0.02,0.01,0.03,0.01,0.05c0.05,0.17,0.09,0.33,0.14,0.5c0.01,0.02,0.01,0.03,0.01,0.06c0.04,0.17,0.09,0.33,0.13,0.5
			c0.01,0.02,0.01,0.04,0.02,0.06c0.05,0.18,0.1,0.35,0.14,0.53c0.03,0.1,0.06,0.21,0.09,0.32c0.02,0.06,0.03,0.13,0.05,0.19
			c0.04,0.15,0.07,0.26,0.11,0.41c0.01,0.03,0.02,0.07,0.03,0.1c0.04,0.15,0.08,0.28,0.12,0.43c0.01,0.02,0.01,0.05,0.02,0.07
			c0.05,0.17,0.08,0.3,0.13,0.47c0,0,0,0.01,0,0.01c0.69,2.52,1.39,5,2.11,7.5l142.58-40.98
			C519.79,1164,518.51,1159.32,517.32,1154.69L517.32,1154.69z M545.77,1236.25l-135.51,60.36c0.54,1.22,1.09,2.44,1.64,3.66
			c0.01,0.02,0.03,0.06,0.03,0.08c0.06,0.12,0.11,0.25,0.17,0.37c0.03,0.06,0.05,0.12,0.08,0.18c0.03,0.08,0.07,0.15,0.1,0.23
			c1.52,3.34,3.05,6.64,4.62,9.96c0.01,0.01,0.01,0.02,0.02,0.04c0.06,0.13,0.13,0.27,0.19,0.41c0.02,0.04,0.03,0.07,0.05,0.11
			c0.05,0.11,0.11,0.23,0.16,0.34c0.04,0.08,0.08,0.17,0.12,0.25c0.03,0.06,0.07,0.16,0.1,0.21c0.16,0.34,0.32,0.67,0.48,1.01
			l133.78-64.1C549.75,1245.03,547.72,1240.63,545.77,1236.25L545.77,1236.25z M587.42,1312.09l-123.67,81.94
			c0.92,1.39,1.84,2.77,2.77,4.15c0.01,0.01,0.02,0.03,0.03,0.04c0.08,0.12,0.16,0.23,0.24,0.35c0.02,0.03,0.04,0.07,0.07,0.1
			c0.07,0.1,0.15,0.22,0.22,0.32c0.03,0.05,0.06,0.09,0.09,0.14c0.06,0.09,0.15,0.22,0.2,0.3c0.03,0.05,0.06,0.09,0.09,0.14
			c0.07,0.1,0.13,0.2,0.21,0.3c0.03,0.05,0.06,0.09,0.09,0.14c0.11,0.16,0.2,0.3,0.31,0.45c0.06,0.09,0.12,0.18,0.19,0.28
			c0.05,0.07,0.07,0.11,0.12,0.18c0.06,0.09,0.13,0.19,0.19,0.28c0.04,0.05,0.08,0.12,0.12,0.17c0.07,0.1,0.14,0.2,0.2,0.3
			c0.04,0.05,0.07,0.1,0.1,0.15c0.08,0.11,0.15,0.22,0.23,0.33c0.02,0.03,0.05,0.07,0.07,0.11c0.09,0.13,0.18,0.27,0.27,0.4
			c0.01,0.02,0.02,0.03,0.03,0.05c1.53,2.23,3.06,4.44,4.61,6.65l121.36-85.32C592.81,1320.1,590.07,1316.08,587.42,1312.09
			L587.42,1312.09z M641.09,1380.14l-108.52,101.15l0.01,0.01c0.12,0.13,0.24,0.26,0.36,0.38c0.04,0.05,0.08,0.08,0.12,0.13
			c0.09,0.09,0.17,0.18,0.26,0.28c0.07,0.08,0.15,0.16,0.22,0.24c0.05,0.05,0.09,0.1,0.14,0.15c0.07,0.08,0.17,0.18,0.24,0.26
			c0.04,0.04,0.08,0.08,0.11,0.12c0.09,0.09,0.17,0.18,0.25,0.27c0.04,0.04,0.07,0.08,0.11,0.12c0.09,0.09,0.17,0.18,0.25,0.27
			c0.03,0.04,0.07,0.07,0.1,0.11c0.09,0.09,0.17,0.18,0.26,0.28c0.03,0.03,0.06,0.06,0.09,0.1c0.27,0.29,0.57,0.6,0.84,0.89
			c0.05,0.05,0.09,0.1,0.14,0.15c0.06,0.06,0.13,0.14,0.19,0.2c0.07,0.07,0.13,0.14,0.2,0.21c0.06,0.06,0.1,0.11,0.16,0.17
			c0.08,0.08,0.15,0.16,0.23,0.24c0.04,0.05,0.09,0.09,0.13,0.14c0.1,0.1,0.19,0.2,0.28,0.3c0.03,0.03,0.05,0.05,0.08,0.09
			c2.65,2.79,5.33,5.56,8.03,8.3l105.7-104.09C647.73,1387.17,644.37,1383.65,641.09,1380.14L641.09,1380.14z M705.23,1438.49
			l-90.45,117.59c4.9,3.77,9.85,7.47,14.85,11.1l87.18-120.03C712.93,1444.33,709.04,1441.42,705.23,1438.49L705.23,1438.49z
			 M777.99,1485.43l-69.82,130.89c2.67,1.42,5.33,2.82,8.01,4.21c0.03,0.02,0.06,0.03,0.09,0.05c0.11,0.06,0.21,0.11,0.32,0.16
			c0.06,0.03,0.12,0.06,0.17,0.09c0.09,0.05,0.18,0.09,0.27,0.14c0.08,0.04,0.15,0.08,0.23,0.12c0.08,0.04,0.16,0.08,0.24,0.12
			c0.09,0.05,0.19,0.1,0.28,0.15c0.08,0.04,0.11,0.06,0.19,0.1c0.12,0.06,0.23,0.12,0.35,0.18c0.04,0.02,0.1,0.05,0.14,0.07
			c0.33,0.17,0.66,0.34,0.99,0.51c0.02,0.01,0.05,0.02,0.07,0.03c0.14,0.07,0.29,0.15,0.43,0.22c0.04,0.02,0.07,0.04,0.11,0.06
			c0.12,0.06,0.25,0.13,0.37,0.19c0.06,0.03,0.09,0.05,0.15,0.08c0.12,0.06,0.23,0.12,0.35,0.18c0.04,0.02,0.11,0.05,0.14,0.07
			c0.12,0.06,0.24,0.12,0.35,0.18c0.04,0.02,0.11,0.06,0.15,0.07c0.12,0.06,0.23,0.12,0.35,0.17c0.06,0.03,0.1,0.05,0.16,0.08
			c0.11,0.06,0.22,0.11,0.33,0.17c0.06,0.03,0.11,0.05,0.16,0.08c0.09,0.05,0.18,0.09,0.28,0.14c0.17,0.09,0.36,0.18,0.53,0.27
			c0.04,0.02,0.08,0.04,0.12,0.06c0.13,0.07,0.26,0.13,0.39,0.19c0.02,0.01,0.05,0.02,0.07,0.03c0.15,0.08,0.27,0.14,0.42,0.21
			c0.01,0,0.01,0.01,0.02,0.01c0.08,0.04,0.15,0.08,0.23,0.11l66.17-132.77C786.54,1489.92,782.22,1487.69,777.99,1485.43
			L777.99,1485.43z M857.37,1519.63l-47.13,140.66c1.16,0.39,2.3,0.77,3.46,1.15c0.02,0.01,0.04,0.01,0.06,0.02
			c0.14,0.05,0.28,0.09,0.42,0.14c0.06,0.02,0.12,0.04,0.18,0.06c0.1,0.03,0.22,0.07,0.32,0.1c4.39,1.44,8.8,2.83,13.23,4.18
			l43.19-141.92C866.52,1522.62,861.9,1521.15,857.37,1519.63L857.37,1519.63z M941.3,1540.15l-23.11,146.54
			c6.09,0.96,12.22,1.84,18.36,2.64l19.05-147.12C950.84,1541.59,946.03,1540.89,941.3,1540.15L941.3,1540.15z M1042.37,1546.23
			c-4.81,0.17-9.69,0.27-14.51,0.31l1.18,148.34c3.59-0.03,7.17-0.09,10.74-0.17c0.02,0,0.04,0,0.06,0c0.16,0,0.29-0.01,0.44-0.01
			c0.05,0,0.1,0,0.14,0c0.14,0,0.23-0.01,0.37-0.01c0.08,0,0.16,0,0.24-0.01c0.09,0,0.2-0.01,0.29-0.01c0.11,0,0.22-0.01,0.33-0.01
			c0.07,0,0.13,0,0.2-0.01c0.16,0,0.32-0.01,0.48-0.01c0.02,0,0.03,0,0.05,0c1.73-0.05,3.46-0.1,5.19-0.16L1042.37,1546.23
			L1042.37,1546.23z M1128.4,1536.08c-4.69,0.95-9.46,1.85-14.18,2.68l25.5,146.14c1.23-0.21,2.45-0.43,3.68-0.65c0,0,0.01,0,0.01,0
			c0.17-0.03,0.31-0.06,0.49-0.09c0.03-0.01,0.06-0.01,0.08-0.02c0.13-0.02,0.29-0.05,0.42-0.08c0.07-0.01,0.13-0.02,0.2-0.04
			c0.09-0.02,0.23-0.04,0.32-0.06c0.14-0.03,0.28-0.05,0.42-0.08c0.04-0.01,0.06-0.01,0.11-0.02c2.46-0.45,4.92-0.92,7.37-1.4
			c0.02,0,0.05-0.01,0.07-0.01c0.15-0.03,0.3-0.06,0.45-0.09c0.06-0.01,0.09-0.02,0.16-0.03c0.12-0.02,0.25-0.05,0.37-0.07
			c0.06-0.01,0.14-0.03,0.21-0.04c0.1-0.02,0.2-0.04,0.31-0.06c0.09-0.02,0.18-0.03,0.26-0.05c0.08-0.02,0.16-0.03,0.24-0.05
			c0.11-0.02,0.22-0.04,0.32-0.06c0.04-0.01,0.07-0.01,0.11-0.02c0.88-0.17,1.75-0.35,2.62-0.53L1128.4,1536.08L1128.4,1536.08z
			 M1211.33,1511.88c-4.46,1.72-9.01,3.4-13.52,4.99l49.43,139.87c1.55-0.55,3.12-1.11,4.67-1.67c0.01,0,0.01,0,0.02-0.01
			c0.14-0.05,0.29-0.11,0.43-0.16c0.03-0.01,0.07-0.02,0.1-0.04c0.12-0.04,0.26-0.09,0.38-0.14c0.05-0.02,0.1-0.04,0.14-0.05
			c0.1-0.04,0.24-0.09,0.34-0.12c0.07-0.02,0.14-0.05,0.2-0.07c0.1-0.04,0.2-0.07,0.3-0.11c0.17-0.06,0.33-0.12,0.5-0.18l0.01,0
			c0.17-0.06,0.34-0.12,0.51-0.19c0.04-0.01,0.1-0.04,0.14-0.05c0.13-0.05,0.25-0.09,0.38-0.14c0.06-0.02,0.1-0.04,0.16-0.06
			c0.12-0.04,0.24-0.09,0.37-0.14c0.06-0.02,0.1-0.04,0.16-0.06c0.12-0.05,0.25-0.09,0.37-0.14c0.04-0.01,0.11-0.04,0.15-0.05
			c0.13-0.05,0.26-0.1,0.39-0.14c0.04-0.01,0.09-0.03,0.13-0.05c0.15-0.05,0.29-0.11,0.44-0.16c0.04-0.01,0.04-0.01,0.08-0.03
			c0.53-0.2,1.05-0.39,1.58-0.59c0.06-0.02,0.11-0.04,0.17-0.06c0.11-0.04,0.22-0.08,0.33-0.13c0.08-0.03,0.15-0.06,0.23-0.09
			c0.09-0.03,0.18-0.07,0.26-0.1c0.08-0.03,0.2-0.08,0.28-0.11c0.07-0.02,0.13-0.05,0.2-0.07c0.1-0.04,0.23-0.09,0.33-0.13
			c0.04-0.02,0.09-0.03,0.13-0.05c0.14-0.05,0.25-0.1,0.39-0.15c0.01,0,0.01-0.01,0.02-0.01c1.04-0.39,2.05-0.78,3.09-1.18
			L1211.33,1511.88L1211.33,1511.88z M1289.15,1474.2c-4.13,2.44-8.34,4.85-12.53,7.18l71.95,129.73c0.61-0.34,1.21-0.67,1.82-1.01
			c0.06-0.03,0.12-0.07,0.18-0.1c0.06-0.03,0.08-0.04,0.13-0.07c0.12-0.07,0.25-0.14,0.37-0.21c0.04-0.02,0.05-0.03,0.09-0.05
			c0.14-0.08,0.28-0.16,0.42-0.24c0.04-0.02,0.02-0.01,0.06-0.03c0.15-0.09,0.31-0.17,0.47-0.26l0.01,0
			c4.21-2.37,8.39-4.78,12.54-7.24L1289.15,1474.2L1289.15,1474.2z M1359.82,1424.09c-3.67,3.09-7.44,6.17-11.2,9.16l92.34,116.11
			c0.54-0.43,1.06-0.85,1.6-1.28c0.03-0.03,0.07-0.05,0.1-0.08c0.08-0.07,0.18-0.14,0.26-0.21c0.07-0.05,0.13-0.11,0.2-0.16
			c0.07-0.05,0.12-0.1,0.19-0.15c0.1-0.08,0.19-0.15,0.29-0.23c0.03-0.03,0.09-0.07,0.12-0.1c1.64-1.32,3.28-2.65,4.91-3.99l0,0
			c0.14-0.12,0.29-0.23,0.43-0.35c0.02-0.01,0.02-0.02,0.04-0.03c0.13-0.11,0.27-0.22,0.4-0.33l0.04-0.03
			c0.14-0.11,0.28-0.23,0.42-0.34l0.02-0.02c0.44-0.36,0.89-0.73,1.33-1.1l0.03-0.02c0.13-0.11,0.27-0.22,0.4-0.33
			c0.02-0.01,0.05-0.04,0.06-0.05c0.13-0.11,0.26-0.22,0.39-0.32c0.02-0.01,0.02-0.02,0.04-0.03c1.03-0.86,2.07-1.72,3.09-2.59
			L1359.82,1424.09L1359.82,1424.09z M1421.36,1363c-3.12,3.65-6.33,7.31-9.54,10.87l110.14,99.38c4.14-4.59,8.22-9.23,12.23-13.94
			L1421.36,1363L1421.36,1363z M1471.99,1292.69c-2.47,4.11-5.03,8.24-7.61,12.28l124.98,79.92c3.33-5.2,6.59-10.46,9.77-15.76
			L1471.99,1292.69L1471.99,1292.69z M1510.24,1215.14c-1.75,4.45-3.59,8.94-5.46,13.34l136.48,58.14c0.98-2.31,1.95-4.62,2.91-6.94
			l0-0.01c0.07-0.17,0.14-0.34,0.21-0.51c0.01-0.02,0.01-0.03,0.02-0.04c0.07-0.16,0.13-0.32,0.2-0.48
			c0.01-0.02,0.01-0.03,0.02-0.05c0.07-0.17,0.14-0.34,0.21-0.5l0.01-0.02c0.22-0.53,0.43-1.06,0.65-1.59
			c0.01-0.02,0.02-0.04,0.02-0.06c0.06-0.15,0.12-0.3,0.18-0.45c0.02-0.04,0.03-0.08,0.05-0.12c0.05-0.14,0.11-0.27,0.16-0.41
			c0.02-0.04,0.03-0.08,0.05-0.12c0.05-0.13,0.11-0.27,0.16-0.4c0.02-0.04,0.03-0.08,0.05-0.12c0.06-0.15,0.12-0.3,0.18-0.45
			c0.01-0.02,0.02-0.04,0.02-0.06c0.65-1.61,1.29-3.22,1.92-4.83L1510.24,1215.14L1510.24,1215.14z M1535.05,1132.39
			c-0.99,4.68-2.05,9.41-3.17,14.06l144.25,34.64c0.21-0.89,0.42-1.76,0.63-2.64c0-0.01,0.01-0.02,0.01-0.04
			c0.03-0.13,0.06-0.27,0.09-0.4c0.01-0.05,0.02-0.11,0.04-0.16c0.02-0.11,0.05-0.21,0.07-0.32c0.02-0.08,0.04-0.17,0.06-0.25
			c0.02-0.08,0.04-0.17,0.06-0.25c0.02-0.11,0.05-0.21,0.07-0.32c0.01-0.06,0.03-0.14,0.05-0.2c0.03-0.13,0.06-0.27,0.09-0.4
			c0.01-0.04,0.02-0.08,0.03-0.12c0.26-1.11,0.51-2.23,0.77-3.35l0-0.02c0.04-0.18,0.08-0.36,0.12-0.54l0-0.02
			c0.68-3.01,1.34-6.03,1.98-9.06L1535.05,1132.39L1535.05,1132.39z M1545.83,1046.46c-0.2,4.81-0.48,9.67-0.81,14.46l147.99,10.33
			c0.11-1.52,0.21-3.05,0.3-4.58c0-0.02,0-0.05,0-0.07c0.01-0.16,0.02-0.31,0.03-0.47c0-0.04,0-0.08,0.01-0.12
			c0.01-0.14,0.02-0.28,0.03-0.41c0-0.07,0.01-0.11,0.01-0.17c0.01-0.12,0.01-0.24,0.02-0.36c0-0.07,0.01-0.14,0.01-0.21
			c0.01-0.1,0.01-0.21,0.02-0.31c0.01-0.09,0.01-0.17,0.02-0.26c0-0.08,0.01-0.16,0.01-0.24c0.03-0.42,0.05-0.85,0.07-1.27
			c0-0.04,0-0.09,0.01-0.13c0.01-0.13,0.01-0.24,0.02-0.37c0-0.06,0.01-0.12,0.01-0.18c0.01-0.13,0.01-0.21,0.02-0.35
			c0-0.07,0.01-0.14,0.01-0.21c0.01-0.11,0.01-0.21,0.02-0.32c0-0.08,0.01-0.16,0.01-0.24c0.01-0.11,0.01-0.19,0.02-0.3
			c0-0.09,0.01-0.18,0.01-0.27c0-0.09,0.01-0.18,0.01-0.27c0.01-0.1,0.01-0.2,0.02-0.3c0-0.09,0.01-0.16,0.01-0.25
			c0.01-0.12,0.01-0.23,0.02-0.35c0-0.07,0.01-0.13,0.01-0.19c0.01-0.14,0.01-0.28,0.02-0.42c0-0.04,0-0.08,0.01-0.12
			c0.01-0.18,0.02-0.35,0.03-0.53l0-0.02c0.09-1.74,0.17-3.48,0.24-5.22L1545.83,1046.46L1545.83,1046.46z M1689.68,941.67
			l-147.26,17.98c0.58,4.76,1.1,9.59,1.55,14.37l147.69-13.91c0-0.02,0-0.05-0.01-0.07c-0.01-0.1-0.02-0.2-0.03-0.3
			c-0.01-0.07-0.02-0.18-0.02-0.24c-0.01-0.12-0.02-0.25-0.04-0.37c-0.01-0.07-0.01-0.12-0.02-0.18c-0.02-0.18-0.04-0.37-0.05-0.55
			c0-0.04-0.01-0.05-0.01-0.1c-0.01-0.15-0.03-0.3-0.04-0.46c0-0.04-0.01-0.14-0.02-0.18c-0.01-0.13-0.03-0.26-0.04-0.38
			c-0.01-0.07-0.01-0.11-0.02-0.18c-0.01-0.13-0.03-0.25-0.04-0.38c0-0.04-0.01-0.14-0.02-0.18c-0.01-0.13-0.03-0.26-0.04-0.39
			c-0.01-0.07-0.01-0.1-0.02-0.17c-0.01-0.13-0.03-0.26-0.04-0.4c0-0.04-0.01-0.11-0.02-0.16c-0.01-0.14-0.03-0.28-0.04-0.42
			c0-0.04-0.01-0.09-0.01-0.13c-0.02-0.15-0.03-0.3-0.05-0.45c0-0.04-0.01-0.06-0.01-0.1c-0.02-0.17-0.04-0.35-0.05-0.52l0-0.03
			c-0.38-3.65-0.79-7.28-1.22-10.91l0-0.03c-0.02-0.18-0.04-0.35-0.06-0.53c0-0.02,0-0.03-0.01-0.05c-0.02-0.17-0.04-0.33-0.06-0.5
			C1689.68,941.7,1689.68,941.7,1689.68,941.67L1689.68,941.67z M1667.1,832.86L1524.86,875c1.36,4.58,2.67,9.25,3.9,13.87
			l143.35-38.17c-0.24-0.92-0.49-1.84-0.74-2.76c-0.01-0.04-0.02-0.09-0.04-0.13c-0.03-0.12-0.06-0.24-0.1-0.36
			c-0.02-0.08-0.05-0.17-0.07-0.26c-0.02-0.07-0.04-0.14-0.06-0.22c-0.03-0.12-0.07-0.24-0.1-0.36c-0.01-0.02-0.01-0.05-0.02-0.07
			c-1.13-4.12-2.3-8.27-3.5-12.36c-0.01-0.02-0.01-0.05-0.02-0.07c-0.04-0.14-0.07-0.24-0.11-0.39c-0.02-0.05-0.03-0.11-0.05-0.16
			c-0.03-0.1-0.06-0.21-0.09-0.32c-0.02-0.08-0.05-0.17-0.07-0.25C1667.12,832.95,1667.11,832.92,1667.1,832.86L1667.1,832.86z
			 M1626.74,729.31l-133.26,65.19c2.1,4.3,4.18,8.69,6.16,13.04l135.01-61.47c-0.16-0.35-0.32-0.7-0.48-1.05
			c-0.01-0.02,0.01,0.02,0,0c-0.08-0.17-0.16-0.35-0.24-0.52l0-0.01c-0.16-0.34-0.31-0.69-0.47-1.03c-0.04-0.08-0.06-0.12-0.09-0.2
			c-0.04-0.09-0.09-0.18-0.13-0.28c-0.04-0.1-0.1-0.22-0.15-0.32c-0.02-0.05-0.05-0.1-0.07-0.15c-0.05-0.12-0.11-0.25-0.17-0.36
			c-0.02-0.03-0.03-0.07-0.05-0.1c-0.06-0.13-0.13-0.27-0.19-0.41c0-0.01-0.01-0.02-0.01-0.03c-1.79-3.85-3.59-7.64-5.45-11.45
			c-0.01-0.03-0.03-0.05-0.04-0.08c-0.06-0.11-0.12-0.25-0.18-0.37c-0.03-0.07-0.07-0.14-0.1-0.21
			C1626.81,729.44,1626.78,729.38,1626.74,729.31L1626.74,729.31z M1569.79,633.87l-120.66,86.3c2.79,3.9,5.56,7.9,8.25,11.87
			l123-82.94c-1.69-2.51-3.4-5.01-5.13-7.49c-0.02-0.03-0.04-0.05-0.05-0.08c-0.07-0.1-0.13-0.18-0.2-0.29
			c-0.04-0.06-0.08-0.12-0.12-0.17c-0.06-0.09-0.1-0.15-0.16-0.24c-0.05-0.08-0.11-0.15-0.16-0.23c-0.05-0.07-0.09-0.13-0.14-0.2
			c-0.06-0.09-0.13-0.18-0.19-0.27c-0.05-0.07-0.07-0.1-0.12-0.17c-0.07-0.11-0.15-0.21-0.22-0.32c-0.02-0.03-0.06-0.09-0.08-0.12
			c-0.22-0.31-0.43-0.62-0.65-0.92l-0.01-0.01c-0.1-0.15-0.2-0.29-0.31-0.44c-0.01-0.02-0.06-0.08-0.07-0.1
			c-0.08-0.12-0.16-0.23-0.24-0.35c-0.04-0.05-0.06-0.09-0.1-0.14c-0.07-0.1-0.14-0.2-0.21-0.3c-0.04-0.05-0.07-0.1-0.11-0.15
			c-0.07-0.1-0.14-0.19-0.2-0.29c-0.05-0.07-0.07-0.11-0.12-0.17c-0.06-0.09-0.12-0.17-0.18-0.26c-0.05-0.07-0.09-0.12-0.14-0.19
			c-0.04-0.06-0.08-0.12-0.12-0.18C1570.81,635.3,1570.31,634.59,1569.79,633.87L1569.79,633.87z M1497.91,549.11l-104.86,104.94
			c3.4,3.39,6.79,6.88,10.09,10.37l107.7-102.02c-1.32-1.4-2.65-2.79-3.98-4.17c-0.03-0.03-0.06-0.06-0.08-0.09
			c-0.1-0.1-0.19-0.2-0.29-0.3c-0.04-0.05-0.09-0.09-0.13-0.14c-0.08-0.08-0.15-0.16-0.23-0.24c-0.06-0.06-0.11-0.12-0.17-0.18
			c-0.07-0.07-0.14-0.14-0.2-0.21c-0.06-0.06-0.12-0.13-0.18-0.19c-0.06-0.06-0.12-0.12-0.18-0.18c-0.07-0.08-0.13-0.14-0.21-0.21
			c-0.04-0.04-0.08-0.08-0.12-0.12c-0.31-0.32-0.6-0.62-0.91-0.93c-0.02-0.02-0.03-0.03-0.05-0.05c-0.1-0.11-0.19-0.19-0.29-0.3
			c-0.03-0.03-0.05-0.05-0.08-0.08c-0.09-0.09-0.21-0.22-0.3-0.31c-0.02-0.02-0.03-0.03-0.05-0.05c-0.1-0.1-0.22-0.23-0.32-0.33
			c0,0-0.01-0.01-0.01-0.01C1501.35,552.57,1499.63,550.83,1497.91,549.11L1497.91,549.11z M1413.09,477.3l-86.2,120.73
			c3.9,2.79,7.82,5.67,11.65,8.56l89.49-118.31c-0.02-0.01-0.04-0.03-0.06-0.05c-0.09-0.07-0.18-0.14-0.27-0.2
			c-0.05-0.04-0.11-0.08-0.16-0.12c-0.14-0.11-0.29-0.22-0.43-0.33c-0.02-0.01-0.02-0.01-0.04-0.03c-0.13-0.1-0.27-0.2-0.4-0.3
			c-0.03-0.03-0.1-0.08-0.14-0.1c-0.1-0.07-0.2-0.15-0.3-0.22c-0.07-0.05-0.1-0.08-0.17-0.13c-0.09-0.07-0.18-0.14-0.27-0.2
			c-0.07-0.05-0.11-0.08-0.17-0.13c-0.09-0.07-0.18-0.13-0.26-0.2c-0.05-0.04-0.13-0.1-0.18-0.14c-0.08-0.06-0.16-0.12-0.24-0.18
			c-0.07-0.05-0.14-0.11-0.21-0.16c-0.06-0.04-0.12-0.09-0.18-0.13c-0.49-0.36-0.97-0.72-1.46-1.08c-0.01-0.01-0.01-0.01-0.02-0.02
			c-0.14-0.1-0.26-0.19-0.39-0.29c0,0-0.01-0.01-0.01-0.01C1419.49,481.91,1416.31,479.59,1413.09,477.3L1413.09,477.3z
			 M1317.61,420.43l-65.08,133.31c4.3,2.1,8.63,4.29,12.88,6.51l68.75-131.45c-0.02-0.01-0.02-0.01-0.03-0.02
			c-0.14-0.07-0.28-0.14-0.42-0.22c-0.02-0.01-0.06-0.03-0.08-0.04c-0.17-0.09-0.33-0.17-0.5-0.26c-0.02-0.01-0.04-0.02-0.06-0.03
			c-0.14-0.07-0.28-0.15-0.42-0.22c-0.06-0.03-0.12-0.06-0.18-0.09c-0.1-0.05-0.2-0.1-0.3-0.16c-0.08-0.04-0.14-0.07-0.21-0.11
			c-0.09-0.05-0.19-0.1-0.28-0.15c-0.08-0.04-0.13-0.07-0.21-0.11c-0.09-0.05-0.19-0.1-0.28-0.14c-0.06-0.03-0.15-0.08-0.21-0.11
			c-0.1-0.05-0.2-0.1-0.29-0.15c-0.06-0.03-0.14-0.07-0.19-0.1c-0.1-0.05-0.21-0.11-0.31-0.16c-0.08-0.04-0.1-0.05-0.17-0.09
			c-0.16-0.08-0.32-0.17-0.48-0.25c-0.02-0.01-0.03-0.01-0.04-0.02c-0.15-0.08-0.3-0.15-0.45-0.23c-0.04-0.02-0.09-0.05-0.13-0.07
			c-0.12-0.06-0.24-0.12-0.36-0.18c-0.06-0.03-0.11-0.05-0.16-0.08c-0.11-0.06-0.22-0.11-0.33-0.17c-0.06-0.03-0.12-0.06-0.17-0.09
			c-0.11-0.06-0.22-0.11-0.33-0.17c-0.06-0.03-0.1-0.05-0.16-0.08c-0.12-0.06-0.24-0.12-0.36-0.18c-0.06-0.03-0.08-0.04-0.14-0.07
			c-0.14-0.07-0.29-0.15-0.43-0.22c-0.02-0.01-0.03-0.02-0.05-0.03c-0.34-0.17-0.68-0.34-1.02-0.52c-0.02-0.01-0.02-0.01-0.04-0.02
			c-0.15-0.08-0.3-0.15-0.45-0.23c-0.04-0.02-0.09-0.05-0.13-0.06c-0.12-0.06-0.25-0.12-0.37-0.19c-0.06-0.03-0.08-0.04-0.14-0.07
			c-0.12-0.06-0.23-0.12-0.35-0.18c-0.06-0.03-0.1-0.05-0.16-0.08c-0.12-0.06-0.23-0.12-0.35-0.17c-0.06-0.03-0.1-0.05-0.15-0.08
			c-0.12-0.06-0.24-0.12-0.35-0.18c-0.04-0.02-0.1-0.05-0.14-0.07c-0.14-0.07-0.29-0.14-0.43-0.22c-0.02-0.01-0.05-0.02-0.06-0.03
			c-0.16-0.08-0.32-0.16-0.48-0.24c-0.09-0.05-0.15-0.08-0.25-0.12c-0.08-0.04-0.15-0.07-0.23-0.11c-0.09-0.05-0.2-0.1-0.3-0.15
			c-0.06-0.03-0.11-0.06-0.17-0.08c-0.11-0.06-0.22-0.11-0.34-0.17c-0.04-0.02-0.08-0.04-0.12-0.06c-0.13-0.07-0.24-0.12-0.37-0.18
			c-0.02-0.01-0.04-0.02-0.06-0.03C1319.19,421.2,1318.39,420.81,1317.61,420.43L1317.61,420.43z M1214.03,380.16L1172,522.43
			c4.59,1.35,9.21,2.79,13.76,4.27l45.98-141.04l-0.02-0.01c-0.15-0.05-0.31-0.1-0.46-0.15c-0.04-0.01-0.07-0.02-0.11-0.04
			c-0.13-0.04-0.25-0.08-0.38-0.12c-0.06-0.02-0.13-0.04-0.19-0.06c-0.09-0.03-0.18-0.06-0.27-0.09c-0.1-0.03-0.17-0.06-0.28-0.09
			c-0.03-0.01-0.05-0.02-0.08-0.03c-3.72-1.2-7.46-2.37-11.21-3.51c-0.02-0.01-0.04-0.01-0.06-0.02c-0.14-0.04-0.26-0.08-0.41-0.12
			c-0.05-0.01-0.09-0.03-0.13-0.04c-0.12-0.04-0.24-0.07-0.36-0.11c-0.06-0.02-0.12-0.04-0.19-0.06c-0.1-0.03-0.21-0.06-0.31-0.09
			c-0.09-0.03-0.19-0.06-0.28-0.08c-0.06-0.02-0.17-0.05-0.23-0.07C1215.85,380.7,1214.94,380.43,1214.03,380.16L1214.03,380.16z
			 M1105.19,357.66l-17.86,147.27c4.76,0.58,9.58,1.23,14.31,1.94l21.92-146.72C1117.47,359.24,1111.35,358.41,1105.19,357.66
			L1105.19,357.66z"/>
	</g>
	<g>
		<path class="st3" d="M1023.58,352.75c-0.09,0-0.19,0-0.28,0c-0.05,0-0.06,0-0.1,0c-0.06,0-0.12,0-0.18,0c-0.05,0-0.07,0-0.11,0
			c-0.06,0-0.11,0-0.17,0c-0.05,0-0.08,0-0.13,0c-0.05,0-0.1,0-0.15,0c-0.05,0-0.1,0-0.15,0c-0.04,0-0.09,0-0.13,0
			c-0.05,0-0.09,0-0.14,0c-0.05,0-0.1,0-0.15,0c-0.05,0-0.09,0-0.14,0c-0.05,0-0.09,0-0.14,0c-0.05,0-0.1,0-0.14,0
			c-0.04,0-0.09,0-0.13,0c-0.05,0-0.11,0-0.16,0c-0.04,0-0.07,0-0.11,0c-0.07,0-0.1,0-0.17,0c-0.03,0-0.06,0-0.1,0
			c-0.07,0-0.12,0-0.19,0c-0.03,0-0.05,0-0.07,0c-0.07,0-0.13,0-0.2,0c-0.02,0-0.04,0-0.07,0c-5.08,0.02-10.18,0.11-15.24,0.24
			l1.51,55.61c5.65-0.15,11.38-0.23,17.04-0.23V352.75L1023.58,352.75L1023.58,352.75z M968,355.02c-1.35,0.11-2.69,0.22-4.04,0.34
			c-0.07,0.01-0.09,0.01-0.16,0.01c-0.04,0-0.07,0.01-0.11,0.01c-0.09,0.01-0.14,0.01-0.23,0.02c-0.01,0-0.03,0-0.04,0
			c-4.05,0.36-8.08,0.75-12.11,1.19c-0.6,0.06-1.19,0.13-1.79,0.19l6.07,55.3c5.61-0.62,11.31-1.16,16.94-1.62L968,355.02
			L968,355.02z M912.81,361.85c-1.3,0.22-2.58,0.43-3.87,0.65c-0.01,0-0.02,0-0.02,0c-0.09,0.01-0.14,0.02-0.23,0.04
			c-0.01,0-0.03,0-0.04,0.01c-0.09,0.01-0.12,0.02-0.21,0.04c-0.03,0-0.05,0.01-0.08,0.01c-0.06,0.01-0.12,0.02-0.18,0.03
			c-0.04,0.01-0.07,0.01-0.11,0.02c-0.06,0.01-0.08,0.01-0.15,0.03c-0.06,0.01-0.12,0.02-0.19,0.03c-0.04,0.01-0.04,0.01-0.08,0.01
			c-4.38,0.76-8.74,1.57-13.09,2.41l10.63,54.6c5.53-1.08,11.16-2.09,16.73-3.02L912.81,361.85L912.81,361.85z M858.37,373.24
			c-2.5,0.63-4.96,1.27-7.45,1.93c-0.03,0.01-0.06,0.02-0.1,0.03c-0.06,0.02-0.09,0.02-0.16,0.04c-0.03,0.01-0.07,0.02-0.1,0.03
			c-0.06,0.02-0.09,0.02-0.15,0.04c-0.04,0.01-0.08,0.02-0.13,0.03c-0.04,0.01-0.08,0.02-0.13,0.03c-0.05,0.01-0.1,0.03-0.15,0.04
			c-0.04,0.01-0.07,0.02-0.11,0.03c-0.06,0.02-0.12,0.03-0.18,0.05c-0.02,0.01-0.06,0.02-0.08,0.02c-0.06,0.02-0.13,0.03-0.19,0.05
			c-0.04,0.01-0.04,0.01-0.08,0.02c-0.37,0.1-0.73,0.2-1.1,0.29l-0.02,0c-2.61,0.7-5.21,1.42-7.8,2.16l15.15,53.53
			c5.43-1.54,10.95-3.02,16.42-4.4L858.37,373.24L858.37,373.24z M805.07,389.13c-1.5,0.52-3.01,1.04-4.5,1.57l0,0
			c-0.57,0.2-1.11,0.39-1.67,0.59c-0.01,0-0.02,0.01-0.03,0.01c-0.06,0.02-0.13,0.05-0.19,0.07c-0.02,0.01-0.05,0.02-0.07,0.02
			c-0.06,0.02-0.13,0.05-0.19,0.07c-0.02,0.01-0.04,0.01-0.06,0.02c-0.06,0.02-0.13,0.04-0.19,0.07c-0.02,0.01-0.05,0.02-0.07,0.03
			c-0.06,0.02-0.12,0.04-0.18,0.06c-0.03,0.01-0.06,0.02-0.09,0.03c-0.06,0.02-0.09,0.03-0.15,0.06c-0.07,0.02-0.13,0.05-0.2,0.07
			c-0.06,0.02-0.09,0.03-0.15,0.05c-0.05,0.02-0.11,0.04-0.17,0.06c-0.04,0.01-0.04,0.02-0.08,0.03c-0.06,0.02-0.12,0.04-0.18,0.07
			c-0.02,0.01-0.05,0.02-0.07,0.02c-0.07,0.03-0.14,0.05-0.21,0.08c-0.02,0.01-0.02,0.01-0.04,0.02c-0.08,0.03-0.15,0.05-0.23,0.08
			c-0.02,0.01-0.02,0.01-0.04,0.01c-2.9,1.04-5.79,2.11-8.68,3.19l19.56,52.08c5.28-1.98,10.66-3.92,15.99-5.75L805.07,389.13
			L805.07,389.13z M753.29,409.41c-1.06,0.47-2.11,0.93-3.17,1.4c-0.02,0.01-0.02,0.01-0.04,0.02c-0.07,0.03-0.14,0.06-0.21,0.09
			c-0.04,0.02-0.02,0.01-0.06,0.03c-0.06,0.03-0.12,0.05-0.18,0.08c-0.02,0.01-0.07,0.03-0.09,0.04c-0.05,0.02-0.1,0.05-0.16,0.07
			c-0.04,0.02-0.06,0.03-0.1,0.04c-0.04,0.02-0.09,0.04-0.13,0.06c-0.27,0.12-0.53,0.24-0.81,0.36c-0.01,0-0.02,0.01-0.03,0.01
			c-0.08,0.03-0.14,0.06-0.21,0.1c-0.01,0-0.01,0.01-0.02,0.01c-0.08,0.03-0.14,0.06-0.22,0.1c-0.01,0-0.01,0.01-0.02,0.01
			c-0.08,0.04-0.14,0.07-0.22,0.1c0,0,0,0,0,0c-3.76,1.7-7.49,3.43-11.21,5.19l23.83,50.27c5.1-2.42,10.3-4.8,15.46-7.07
			L753.29,409.41L753.29,409.41z M703.37,433.93c-5.44,2.96-10.82,5.98-16.16,9.08l27.92,48.11c4.88-2.83,9.87-5.64,14.82-8.33
			L703.37,433.93L703.37,433.93z M655.66,462.51c-1.61,1.06-3.22,2.12-4.82,3.2c-0.02,0.01-0.02,0.01-0.03,0.02
			c-0.06,0.04-0.13,0.09-0.19,0.13c-0.02,0.01-0.04,0.02-0.05,0.04c-0.06,0.04-0.12,0.08-0.18,0.12c-0.02,0.01-0.04,0.03-0.06,0.04
			c-0.06,0.04-0.11,0.08-0.17,0.12c-0.02,0.01-0.04,0.03-0.06,0.04c-0.06,0.04-0.11,0.08-0.17,0.11c-0.04,0.02-0.03,0.02-0.07,0.04
			c-0.15,0.1-0.3,0.2-0.45,0.3c-0.03,0.02-0.04,0.03-0.08,0.05c-0.05,0.03-0.1,0.07-0.15,0.1c-0.02,0.01-0.08,0.05-0.09,0.06
			c-0.04,0.03-0.08,0.06-0.13,0.08c-0.03,0.02-0.07,0.05-0.11,0.07c-0.04,0.03-0.09,0.06-0.13,0.09c-0.03,0.02-0.06,0.04-0.1,0.06
			c-0.05,0.03-0.09,0.06-0.14,0.09c-0.02,0.01-0.07,0.05-0.09,0.06c-0.05,0.03-0.1,0.07-0.15,0.1c-0.03,0.02-0.05,0.03-0.08,0.06
			c-0.04,0.03-0.09,0.06-0.13,0.09c-0.09,0.06-0.14,0.09-0.23,0.15c-0.03,0.02-0.05,0.04-0.08,0.05c-0.05,0.04-0.07,0.05-0.13,0.09
			c-0.03,0.02-0.07,0.05-0.1,0.07c-0.03,0.02-0.09,0.06-0.12,0.08c-0.03,0.02-0.07,0.05-0.1,0.07c-0.03,0.02-0.09,0.06-0.12,0.08
			c-0.03,0.02-0.06,0.04-0.1,0.06c-0.05,0.04-0.08,0.06-0.14,0.09c-0.03,0.02-0.05,0.04-0.08,0.06c-0.05,0.04-0.08,0.06-0.13,0.09
			c-0.03,0.02-0.06,0.04-0.09,0.06c-0.17,0.12-0.34,0.23-0.52,0.35c-0.01,0.01-0.02,0.02-0.04,0.02c-0.05,0.04-0.1,0.07-0.15,0.1
			c-0.02,0.02-0.05,0.03-0.07,0.05c-0.05,0.04-0.09,0.06-0.14,0.1c-0.02,0.02-0.05,0.03-0.07,0.05c-0.03,0.02-0.11,0.08-0.15,0.1
			c-0.02,0.02-0.05,0.03-0.07,0.05c-0.05,0.04-0.1,0.07-0.15,0.1c-0.02,0.01-0.04,0.03-0.06,0.04c-0.05,0.04-0.11,0.08-0.16,0.11
			c-0.01,0.01-0.02,0.01-0.03,0.02c-0.21,0.14-0.39,0.26-0.59,0.41c0,0-0.01,0-0.01,0.01c-0.07,0.05-0.12,0.08-0.19,0.13
			c-0.01,0.01-0.02,0.01-0.03,0.02c-0.07,0.05-0.12,0.08-0.19,0.13c-0.01,0.01-0.02,0.01-0.03,0.02c-0.07,0.05-0.11,0.08-0.18,0.12
			c-0.01,0.01-0.02,0.02-0.04,0.03c-0.42,0.29-0.8,0.55-1.22,0.84c0,0-0.01,0-0.01,0.01c-0.74,0.51-1.49,1.03-2.23,1.55l31.81,45.64
			c4.63-3.23,9.37-6.43,14.09-9.53L655.66,462.51L655.66,462.51z M610.47,494.93c-4.87,3.81-9.69,7.68-14.45,11.62l35.47,42.86
			c4.35-3.6,8.81-7.19,13.26-10.66L610.47,494.93L610.47,494.93z M568.12,530.97c-1.13,1.04-2.25,2.09-3.37,3.14
			c-0.02,0.01-0.06,0.05-0.07,0.07c-0.04,0.04-0.08,0.07-0.12,0.11c-0.03,0.03-0.07,0.06-0.1,0.09c-0.03,0.03-0.06,0.05-0.09,0.08
			c-0.03,0.03-0.09,0.08-0.12,0.11c-0.02,0.02-0.05,0.04-0.07,0.07c-0.05,0.04-0.09,0.09-0.14,0.13c0,0,0,0,0,0
			c-3.06,2.87-6.08,5.76-9.08,8.69c0,0,0,0-0.01,0.01c-0.05,0.04-0.1,0.1-0.15,0.14c-0.02,0.02-0.04,0.04-0.06,0.06
			c-0.02,0.01-0.05,0.05-0.07,0.07l38.87,39.79c4.04-3.95,8.19-7.89,12.33-11.72L568.12,530.97L568.12,530.97z M528.87,570.38
			c-0.68,0.74-1.34,1.47-2.02,2.21c-0.02,0.02-0.03,0.03-0.05,0.05c-0.04,0.05-0.08,0.09-0.13,0.14c-0.02,0.02-0.04,0.05-0.06,0.07
			c-0.04,0.05-0.07,0.08-0.11,0.12c-0.04,0.05-0.09,0.09-0.13,0.14c-0.01,0.02-0.03,0.04-0.05,0.05c-0.13,0.14-0.25,0.28-0.38,0.42
			l-0.01,0.01c-0.06,0.07-0.12,0.13-0.18,0.2c-0.01,0.02,0,0-0.02,0.02c-3.11,3.43-6.18,6.9-9.21,10.4l42.02,36.46
			c3.7-4.26,7.51-8.54,11.33-12.7L528.87,570.38L528.87,570.38z M493,612.88c-0.91,1.18-1.83,2.37-2.74,3.55
			c-0.02,0.02-0.04,0.05-0.06,0.07c-0.04,0.05-0.04,0.06-0.08,0.11c-0.04,0.05-0.07,0.09-0.11,0.14c-0.01,0.02-0.03,0.04-0.04,0.05
			c-0.05,0.07-0.1,0.13-0.15,0.2c-0.01,0.02,0.01-0.01,0,0.01c-2.69,3.53-5.36,7.09-7.98,10.67l44.88,32.87
			c3.33-4.55,6.78-9.12,10.24-13.58L493,612.88L493,612.88z M460.76,658.2c-3.15,4.84-6.24,9.73-9.27,14.66
			c-0.03,0.05-0.05,0.08-0.09,0.14c-0.01,0.02-0.03,0.05-0.04,0.07c-0.04,0.07-0.07,0.12-0.12,0.19c0,0,0,0.01-0.01,0.01
			c-0.12,0.2-0.25,0.41-0.37,0.61l47.44,29.05c2.95-4.81,6-9.65,9.08-14.38L460.76,658.2L460.76,658.2z M432.37,706.02
			c-0.26,0.48-0.52,0.96-0.78,1.45c-0.01,0.02-0.02,0.04-0.04,0.07c-0.02,0.04-0.04,0.08-0.06,0.12c-0.02,0.04-0.04,0.08-0.06,0.12
			c-0.02,0.04-0.04,0.08-0.06,0.11c-0.02,0.04-0.05,0.09-0.07,0.13c-0.02,0.04-0.03,0.06-0.05,0.1c-0.03,0.05-0.06,0.11-0.09,0.16
			c-0.02,0.04-0.01,0.03-0.03,0.06c-0.04,0.07-0.07,0.13-0.11,0.2c-0.01,0.02-0.01,0.02-0.02,0.04c-1.9,3.57-3.78,7.16-5.62,10.77
			c-0.01,0.02,0,0-0.01,0.02c-0.04,0.08-0.08,0.16-0.12,0.23l-0.01,0.02c-0.04,0.08-0.08,0.15-0.12,0.23
			c-0.01,0.02-0.01,0.01-0.02,0.03c-0.04,0.08-0.08,0.17-0.13,0.25c-0.03,0.06-0.06,0.11-0.08,0.17c-0.01,0.02-0.02,0.04-0.03,0.06
			c-0.04,0.08-0.07,0.13-0.11,0.21c0,0.01-0.01,0.01-0.01,0.02c-0.32,0.62-0.64,1.25-0.95,1.88l49.69,25.02
			c2.54-5.04,5.18-10.11,7.86-15.08L432.37,706.02L432.37,706.02z M408.06,756.04c-2.46,5.65-4.86,11.37-7.17,17.1l51.6,20.79
			c2.11-5.23,4.32-10.5,6.57-15.67L408.06,756.04L408.06,756.04z M387.99,807.91c-0.01,0.02-0.02,0.05-0.02,0.07
			c-0.02,0.06-0.04,0.11-0.06,0.17c-0.01,0.04-0.04,0.1-0.05,0.14c-0.01,0.03-0.02,0.06-0.03,0.09c-0.02,0.06-0.04,0.12-0.06,0.18
			c-0.01,0.02-0.01,0.04-0.02,0.06c-0.77,2.27-1.51,4.51-2.26,6.8c0,0.01-0.01,0.02-0.01,0.03c-0.03,0.08-0.04,0.14-0.07,0.22
			c0,0.01-0.01,0.02-0.01,0.03c-0.03,0.08-0.04,0.13-0.07,0.21c-0.01,0.04-0.02,0.08-0.04,0.11c-0.01,0.04-0.03,0.1-0.04,0.14
			c-0.06,0.18-0.11,0.35-0.17,0.53l-0.01,0.03c-0.03,0.08-0.05,0.17-0.08,0.25l0,0c-0.92,2.85-1.83,5.7-2.71,8.57l53.15,16.42
			c1.66-5.39,3.43-10.83,5.24-16.17L387.99,807.91L387.99,807.91z M372.32,861.27c-0.14,0.55-0.27,1.08-0.4,1.63
			c0,0.01,0,0.01,0,0.02c-0.01,0.04-0.03,0.11-0.04,0.15c-0.01,0.05-0.02,0.09-0.03,0.14c-0.01,0.02-0.02,0.08-0.02,0.1
			c-0.01,0.06-0.03,0.12-0.04,0.18c-0.01,0.02-0.01,0.05-0.02,0.07c-1.28,5.23-2.5,10.49-3.66,15.77l54.34,11.92
			c1.21-5.51,2.51-11.07,3.87-16.55L372.32,861.27L372.32,861.27z M361.16,915.75c-0.89,5.49-1.7,10.95-2.46,16.49
			c0,0.04-0.01,0.07-0.01,0.11c-0.01,0.04-0.01,0.07-0.02,0.11c-0.01,0.06-0.02,0.12-0.02,0.17c0,0.02-0.01,0.06-0.01,0.08
			c-0.01,0.07-0.02,0.13-0.03,0.2c0,0.02-0.01,0.05-0.01,0.07c-0.01,0.07-0.02,0.15-0.03,0.22c0,0.02,0,0.02-0.01,0.04
			c-0.01,0.09-0.02,0.17-0.03,0.26l0,0.02c-0.03,0.19-0.05,0.38-0.08,0.57l55.14,7.37c0.75-5.59,1.58-11.25,2.49-16.82
			L361.16,915.75L361.16,915.75z M354.55,970.98c-0.01,0.13-0.02,0.28-0.03,0.41c0,0.01,0,0.03,0,0.04
			c-0.01,0.07-0.01,0.14-0.02,0.2c0,0.04-0.01,0.08-0.01,0.12c0,0.04-0.01,0.09-0.01,0.14c0,0.06-0.01,0.13-0.01,0.19
			c0,0.02,0,0.04-0.01,0.07c-0.31,4.03-0.58,8.07-0.81,12.11l0,0.04c0,0.08-0.01,0.16-0.01,0.23c0,0.02,0,0.07-0.01,0.09
			c0,0.06-0.01,0.12-0.01,0.18c0,0.04,0,0.07-0.01,0.12c0,0.05-0.01,0.11-0.01,0.16c0,0.04-0.01,0.09-0.01,0.13
			c0,0.04,0,0.09-0.01,0.13c0,0.04-0.01,0.11-0.01,0.15c0,0.04,0,0.08-0.01,0.12c0,0.07-0.01,0.11-0.01,0.17c0,0.02,0,0.05,0,0.07
			c0,0.07-0.01,0.14-0.01,0.21c0,0.02,0,0.03,0,0.05c-0.06,1.12-0.12,2.25-0.18,3.37l55.56,2.8c0.28-5.65,0.65-11.36,1.09-16.99
			L354.55,970.98L354.55,970.98z M408.13,1026.34l-55.63,0.22c0.01,1.63,0.02,3.2,0.04,4.82c0,0.02,0,0.03,0,0.05
			c0,0.07,0,0.13,0,0.2c0,0.03,0,0.06,0,0.1c0,0.05,0,0.11,0,0.15c0,0.05,0,0.1,0,0.15c0,0.05,0,0.06,0,0.11c0,0.07,0,0.13,0,0.2
			l0,0.07c0,0.08,0,0.17,0,0.25l0,0.02c0.05,4.15,0.14,8.3,0.27,12.44l55.6-1.73C408.26,1037.73,408.16,1032,408.13,1026.34
			L408.13,1026.34z M410.42,1077.36l-55.43,4.77c0.11,1.25,0.22,2.51,0.33,3.76v0c0.01,0.09,0.02,0.18,0.03,0.28
			c0,0.02,0,0.02,0,0.04c0.01,0.08,0.01,0.16,0.02,0.24c0,0.02,0,0.04,0.01,0.07c0.01,0.07,0.01,0.14,0.02,0.21
			c0,0.04,0,0.05,0.01,0.09c0.01,0.06,0.01,0.13,0.02,0.19c0,0.02,0.01,0.06,0.01,0.08c0.01,0.07,0.01,0.14,0.02,0.2
			c0,0.02,0.01,0.06,0.01,0.08c0.01,0.07,0.01,0.14,0.02,0.21c0,0.02,0,0.04,0.01,0.06c0.01,0.08,0.02,0.16,0.02,0.24
			c0,0.02,0,0.02,0,0.04c0.03,0.29,0.05,0.57,0.08,0.86l0,0.01c0.01,0.09,0.02,0.18,0.03,0.27l0.01,0.05
			c0.01,0.08,0.02,0.16,0.02,0.24c0,0.02,0,0.01,0,0.03c0.01,0.08,0.02,0.17,0.02,0.25c0,0.02,0,0.02,0,0.04
			c0.01,0.08,0.02,0.16,0.02,0.25l0,0.04c0.01,0.09,0.02,0.17,0.03,0.26l0,0.02c0.34,3.46,0.71,6.91,1.1,10.35l55.27-6.29
			C411.47,1088.68,410.9,1082.99,410.42,1077.36L410.42,1077.36z M416.89,1127.95l-54.84,9.34c0.15,0.91,0.31,1.8,0.47,2.71
			c0,0.02,0.01,0.05,0.01,0.07c0.01,0.06,0.02,0.1,0.03,0.16c0.01,0.05,0.02,0.1,0.03,0.15c0.01,0.04,0.01,0.05,0.02,0.09
			c0.01,0.08,0.03,0.15,0.04,0.23c0,0.02,0,0.01,0.01,0.03c0.87,4.95,1.79,9.88,2.77,14.79l54.56-10.86
			C418.87,1139.14,417.84,1133.51,416.89,1127.95L416.89,1127.95z M427.53,1177.81l-53.87,13.87c0.48,1.87,0.97,3.74,1.47,5.6
			l0,0.01c0.02,0.09,0.05,0.18,0.07,0.27c0.01,0.04,0.01,0.06,0.03,0.1c0.01,0.05,0.03,0.1,0.04,0.15c0.02,0.08,0.04,0.13,0.06,0.22
			c0,0.01,0.01,0.02,0.01,0.03c1.03,3.86,2.09,7.67,3.2,11.5l53.47-15.37C430.44,1188.79,428.94,1183.27,427.53,1177.81
			L427.53,1177.81z M442.29,1226.59l-52.53,18.32c1.4,4.02,2.84,8.01,4.31,11.99l0,0.01c0.1,0.27,0.2,0.53,0.3,0.8
			c0.01,0.04,0.02,0.06,0.04,0.1c0.02,0.05,0.04,0.1,0.06,0.15c0.02,0.06,0.03,0.09,0.05,0.15c0.01,0.03,0.02,0.07,0.04,0.1
			c0.02,0.06,0.04,0.1,0.06,0.16c0.01,0.03,0.02,0.06,0.03,0.09c0.02,0.06,0.05,0.13,0.07,0.19c0.01,0.01,0.01,0.03,0.01,0.04
			c0.03,0.08,0.05,0.14,0.08,0.22c0,0,0,0,0,0c0.43,1.14,0.86,2.29,1.29,3.43l52-19.77
			C446.11,1237.29,444.15,1231.92,442.29,1226.59L442.29,1226.59z M461.07,1273.98l-50.82,22.64c2.52,5.65,5.11,11.27,7.78,16.83
			l50.17-24.04C465.77,1284.32,463.37,1279.13,461.07,1273.98L461.07,1273.98z M483.74,1319.65l-48.76,26.78
			c1.9,3.47,3.84,6.92,5.8,10.35c0.02,0.04,0.03,0.05,0.05,0.09c0.03,0.05,0.05,0.09,0.08,0.14c0.03,0.05,0.04,0.07,0.07,0.13
			c0.02,0.03,0.04,0.06,0.05,0.1c0.02,0.04,0.07,0.12,0.09,0.16c0.01,0.02,0.02,0.04,0.03,0.06c0.04,0.07,0.07,0.12,0.11,0.19
			c0,0,0,0.01,0.01,0.01c0.95,1.65,1.89,3.27,2.85,4.91l48-28.12C489.28,1329.57,486.46,1324.6,483.74,1319.65L483.74,1319.65z
			 M510.13,1363.3l-46.37,30.73c3.04,4.59,6.14,9.14,9.28,13.64l0.01,0.02c0.04,0.06,0.09,0.12,0.13,0.19
			c0.01,0.02,0.04,0.05,0.05,0.07c0.03,0.04,0.06,0.08,0.09,0.13c0.02,0.03,0.05,0.08,0.08,0.11c0.01,0.01,0.01,0.02,0.02,0.03
			c0.25,0.36,0.54,0.77,0.79,1.13l45.51-31.99C516.47,1372.73,513.24,1368,510.13,1363.3L510.13,1363.3z M540.04,1404.63
			l-43.68,34.45c2.33,2.96,4.69,5.89,7.06,8.8l0.01,0.02c0.05,0.06,0.1,0.12,0.15,0.19c0.01,0.02,0.02,0.03,0.04,0.04
			c0.05,0.07,0.11,0.13,0.16,0.2c0.01,0.02,0,0,0.01,0.02c0.06,0.07,0.12,0.14,0.18,0.22c0.01,0.02,0.04,0.05,0.05,0.06
			c0.04,0.05,0.08,0.09,0.12,0.14c0.04,0.05,0.06,0.07,0.1,0.12c0.02,0.03,0.04,0.05,0.07,0.08c0.04,0.05,0.07,0.09,0.11,0.14
			c0.02,0.02,0.04,0.04,0.05,0.07c0.04,0.05,0.09,0.1,0.13,0.15c0.01,0.01,0.02,0.02,0.03,0.03c1.13,1.38,2.27,2.75,3.41,4.12
			l42.72-35.64C547.14,1413.51,543.54,1409.06,540.04,1404.63L540.04,1404.63z M573.27,1443.36l-40.69,37.93
			c0.78,0.84,1.57,1.68,2.36,2.52l0.03,0.04c0.05,0.05,0.1,0.11,0.15,0.16c0.01,0.02,0.03,0.03,0.04,0.05
			c0.04,0.05,0.09,0.09,0.13,0.14c0.03,0.03,0.04,0.04,0.07,0.07c0.03,0.03,0.06,0.07,0.1,0.1c3.28,3.48,6.59,6.9,9.94,10.31
			l39.64-39.03C581.08,1451.62,577.12,1447.49,573.27,1443.36L573.27,1443.36z M609.57,1479.23l-37.43,41.15
			c0.29,0.26,0.57,0.52,0.86,0.78l0,0c0.36,0.32,0.71,0.65,1.07,0.97l0.01,0.01c0.06,0.06,0.13,0.12,0.19,0.18
			c0.02,0.01,0.03,0.02,0.04,0.04c0.05,0.05,0.11,0.1,0.16,0.15c0.03,0.03,0.02,0.02,0.05,0.05c0.05,0.04,0.1,0.09,0.15,0.13
			c0.02,0.01,0.06,0.05,0.07,0.06c0.05,0.04,0.09,0.08,0.14,0.12c0.02,0.01,0.05,0.04,0.06,0.06c0.05,0.05,0.11,0.1,0.16,0.14
			c0.02,0.01,0.03,0.03,0.05,0.04c0.07,0.06,0.14,0.12,0.2,0.18c0.03,0.03,0.03,0.03,0.06,0.06c0.04,0.04,0.09,0.08,0.13,0.11
			c0.05,0.04,0.07,0.06,0.11,0.1c0.03,0.03,0.06,0.05,0.09,0.08c0.03,0.03,0.09,0.08,0.12,0.1c0.03,0.02,0.05,0.05,0.08,0.07
			c0.03,0.03,0.09,0.08,0.12,0.11c0.03,0.02,0.05,0.05,0.08,0.07c0.05,0.04,0.08,0.07,0.13,0.11c0.02,0.01,0.03,0.03,0.05,0.04
			c0.3,0.27,0.6,0.53,0.89,0.8c0,0,0.01,0.01,0.01,0.01c0.13,0.11,0.25,0.22,0.37,0.33c0,0,0,0,0,0c2.79,2.48,5.6,4.94,8.43,7.38
			l36.29-42.16C618.04,1486.82,613.75,1483.03,609.57,1479.23L609.57,1479.23z M648.7,1511.98l-33.92,44.09
			c0.02,0.01,0.02,0.02,0.04,0.03c0.01,0.01,0.02,0.01,0.02,0.02c3.86,2.97,7.73,5.88,11.65,8.76c0.01,0,0.01,0.01,0.02,0.01
			c0.07,0.05,0.11,0.08,0.17,0.13c0.01,0.01,0.03,0.02,0.05,0.03c0.05,0.04,0.1,0.07,0.15,0.11c0.03,0.02,0.06,0.04,0.09,0.06
			c0.05,0.04,0.07,0.05,0.12,0.09c0.04,0.03,0.08,0.06,0.12,0.09c0.03,0.02,0.06,0.04,0.09,0.07c0.15,0.11,0.3,0.22,0.45,0.33l0,0
			c0.62,0.46,1.25,0.91,1.87,1.36l32.69-45.01C657.76,1518.85,653.18,1515.42,648.7,1511.98L648.7,1511.98z M690.39,1541.39
			l-30.16,46.74c5.19,3.35,10.43,6.63,15.72,9.84l28.86-47.56C699.98,1547.49,695.13,1544.45,690.39,1541.39L690.39,1541.39z
			 M734.36,1567.24l-26.18,49.08c4,2.13,8.03,4.23,12.08,6.28l0,0c0.08,0.04,0.16,0.08,0.25,0.12l0.01,0.01
			c0.26,0.13,0.51,0.26,0.77,0.39l0.03,0.01c0.07,0.04,0.14,0.07,0.21,0.11c0.02,0.01,0.04,0.02,0.06,0.03
			c0.06,0.03,0.13,0.06,0.19,0.1c0.04,0.02,0.02,0.01,0.06,0.03c0.06,0.03,0.12,0.06,0.18,0.09c0.02,0.01,0.05,0.03,0.07,0.03
			c0.06,0.03,0.13,0.06,0.19,0.1c0.02,0.01,0.04,0.02,0.06,0.03c0.07,0.03,0.13,0.07,0.2,0.1c0.02,0.01,0.03,0.01,0.05,0.02
			c0.08,0.04,0.16,0.08,0.25,0.12c0.02,0.01,0.03,0.02,0.05,0.03c0.07,0.03,0.13,0.07,0.2,0.1c0.02,0.01,0.05,0.03,0.07,0.04
			c0.06,0.03,0.12,0.06,0.17,0.09c0.02,0.01,0.06,0.03,0.08,0.04c0.05,0.03,0.11,0.05,0.16,0.08c0.04,0.02,0.05,0.03,0.09,0.04
			c0.05,0.03,0.11,0.05,0.16,0.08c0.02,0.01,0.07,0.03,0.09,0.04c0.06,0.03,0.11,0.06,0.17,0.08c0.02,0.01,0.06,0.03,0.08,0.04
			c0.07,0.04,0.15,0.07,0.22,0.11c0.02,0.01,0,0,0.02,0.01c0.09,0.04,0.17,0.09,0.26,0.13l24.81-49.79
			C744.42,1572.52,739.33,1569.9,734.36,1567.24L734.36,1567.24z M780.3,1589.35l-22.01,51.09c0.62,0.27,1.24,0.53,1.86,0.8l0.01,0
			c0.07,0.03,0.15,0.06,0.22,0.1c0.02,0.01,0.04,0.02,0.06,0.02c0.06,0.02,0.12,0.05,0.18,0.07c0.04,0.02,0.05,0.02,0.09,0.04
			c0.03,0.01,0.06,0.03,0.09,0.04c2.25,0.96,4.49,1.9,6.75,2.83c0,0,0,0,0,0c0.06,0.02,0.15,0.06,0.21,0.09
			c0.02,0.01,0.03,0.01,0.05,0.02c0.06,0.02,0.11,0.05,0.17,0.07c0.03,0.01,0.07,0.03,0.11,0.04c0.04,0.02,0.09,0.04,0.13,0.05
			c0.05,0.02,0.1,0.04,0.14,0.06c0.02,0.01,0.08,0.03,0.1,0.04c0.07,0.03,0.15,0.06,0.22,0.09c0.02,0.01,0,0,0.02,0.01
			c2.23,0.92,4.47,1.82,6.72,2.72l20.58-51.68C790.76,1593.77,785.48,1591.58,780.3,1589.35L780.3,1589.35z M827.91,1607.54
			l-17.67,52.75c5.85,1.96,11.74,3.84,17.66,5.65l16.2-53.22C838.71,1611.08,833.26,1609.33,827.91,1607.54L827.91,1607.54z
			 M876.88,1621.7l-13.21,54.04c6,1.47,12.01,2.85,18.07,4.15l11.7-54.39C887.92,1624.32,882.35,1623.04,876.88,1621.7
			L876.88,1621.7z M926.86,1631.73l-8.67,54.95c1.06,0.17,2.12,0.33,3.18,0.49c0.03,0,0.06,0.01,0.09,0.01
			c0.07,0.01,0.11,0.02,0.18,0.03c0.18,0.03,0.37,0.06,0.55,0.08c0.02,0-0.02,0,0,0c4.77,0.72,9.55,1.39,14.35,2.02l7.14-55.17
			C938.09,1633.43,932.43,1632.61,926.86,1631.73L926.86,1631.73z M977.54,1637.59l-4.1,55.48c1.98,0.15,3.97,0.28,5.95,0.41
			c0.01,0,0.02,0,0.03,0c0.07,0,0.15,0.01,0.22,0.01c0.02,0,0.04,0,0.06,0c0.07,0,0.11,0.01,0.18,0.01c0.04,0,0.08,0.01,0.12,0.01
			c0.04,0,0.09,0.01,0.14,0.01c0.05,0,0.1,0.01,0.16,0.01c0.04,0,0.06,0,0.11,0.01c0.07,0,0.14,0.01,0.21,0.01c0.02,0,0.04,0,0.06,0
			c0.08,0.01,0.17,0.01,0.25,0.02l0.03,0c1.92,0.12,3.84,0.23,5.76,0.34c0.02,0,0.02,0,0.04,0c0.08,0,0.15,0.01,0.23,0.01
			c0.04,0,0.04,0,0.08,0c0.06,0,0.12,0.01,0.18,0.01c0.04,0,0.09,0,0.13,0.01c0.04,0,0.08,0,0.12,0.01c0.07,0,0.11,0.01,0.17,0.01
			c0.02,0,0.05,0,0.07,0c0.07,0,0.15,0.01,0.21,0.01c0.01,0,0.02,0,0.03,0c1.32,0.07,2.64,0.13,3.96,0.2l2.58-55.57
			C988.89,1638.35,983.17,1638,977.54,1637.59L977.54,1637.59z M1045.63,1638.89c-5.64,0.2-11.37,0.32-17.03,0.37l0.44,55.63
			c1.55-0.01,3.09-0.03,4.63-0.05c0.02,0,0.02,0,0.05,0c0.08,0,0.15,0,0.23,0c0.02,0,0.06,0,0.09,0c0.06,0,0.12,0,0.18,0
			c0.05,0,0.07,0,0.12,0c0.05,0,0.1,0,0.15,0c0.05,0,0.11,0,0.16,0c0.03,0,0.06,0,0.09,0c0.07,0,0.13,0,0.2,0c0.02,0,0.04,0,0.06,0
			c4.19-0.07,8.42-0.18,12.59-0.33L1045.63,1638.89L1045.63,1638.89z M1096.52,1635.01c-5.6,0.66-11.29,1.25-16.92,1.76l4.99,55.41
			c2.96-0.27,5.91-0.55,8.87-0.86c0.02,0,0.04,0,0.06-0.01c0.04,0,0.11-0.01,0.15-0.02c0.04,0,0.08-0.01,0.12-0.01
			c0.04,0,0.09-0.01,0.13-0.01c0.05-0.01,0.1-0.01,0.16-0.02c0.02,0,0.07-0.01,0.1-0.01c0.06-0.01,0.13-0.01,0.19-0.02
			c0.02,0,0.06-0.01,0.08-0.01c0.07-0.01,0.14-0.01,0.21-0.02c0.02,0,0.05-0.01,0.07-0.01c0.07-0.01,0.14-0.02,0.22-0.02
			c0.02,0,0.04,0,0.06-0.01c0.08-0.01,0.16-0.02,0.24-0.03c0.02,0,0,0,0.03,0c0.09-0.01,0.18-0.02,0.27-0.03l0.01,0
			c0.57-0.06,1.14-0.12,1.71-0.18c0.02,0,0.02,0,0.04,0c0.08-0.01,0.16-0.02,0.23-0.03c0.02,0,0.04,0,0.07-0.01
			c0.07-0.01,0.13-0.01,0.2-0.02c0.04,0,0.06-0.01,0.1-0.01c0.06-0.01,0.11-0.01,0.17-0.02c0.04,0,0.08-0.01,0.12-0.01
			c0.05-0.01,0.09-0.01,0.14-0.02c0.04,0,0.11-0.01,0.15-0.02c0.04,0,0.07-0.01,0.11-0.01c0.07-0.01,0.11-0.01,0.18-0.02
			c0.02,0,0.03,0,0.05-0.01c1.38-0.15,2.82-0.32,4.2-0.48L1096.52,1635.01L1096.52,1635.01z M1146.87,1626.94
			c-5.53,1.12-11.15,2.18-16.71,3.15l9.56,54.8c2.67-0.47,5.33-0.95,7.98-1.44l0.02,0c0.18-0.03,0.37-0.07,0.55-0.1l0.01,0
			c0.09-0.02,0.19-0.04,0.28-0.05c0.02,0,0.03-0.01,0.05-0.01c0.07-0.01,0.14-0.03,0.21-0.04c0.06-0.01,0.09-0.02,0.16-0.03
			c0.04-0.01,0.07-0.01,0.11-0.02c0.06-0.01,0.12-0.02,0.19-0.04c0.02,0,0.04-0.01,0.07-0.01c0.06-0.01,0.13-0.03,0.2-0.04
			c0.02,0,0.04-0.01,0.07-0.01c0.09-0.02,0.13-0.02,0.21-0.04c0.01,0,0.02,0,0.03-0.01c2.7-0.51,5.4-1.05,8.09-1.59L1146.87,1626.94
			L1146.87,1626.94z M1196.35,1614.71c-5.41,1.58-10.92,3.1-16.38,4.53l14.09,53.82c0.15-0.04,0.3-0.08,0.45-0.12
			c0.02,0,0.03-0.01,0.05-0.01c0.06-0.02,0.1-0.03,0.17-0.04c0.04-0.01,0.08-0.02,0.13-0.03c0.04-0.01,0.07-0.02,0.11-0.03
			c0.06-0.02,0.12-0.03,0.18-0.05c0.02-0.01,0.04-0.01,0.06-0.02c5.6-1.48,11.18-3.03,16.72-4.64L1196.35,1614.71L1196.35,1614.71z
			 M1244.64,1598.4c-5.26,2.03-10.63,4.01-15.94,5.89l18.54,52.45c0.02-0.01,0.04-0.01,0.06-0.02c0.04-0.01,0.07-0.03,0.11-0.04
			c0.06-0.02,0.08-0.03,0.14-0.05c0.04-0.02,0.09-0.03,0.13-0.05c0.04-0.01,0.09-0.03,0.13-0.05c0.01,0,0.03-0.01,0.04-0.01
			c0.1-0.04,0.22-0.08,0.32-0.11c0.05-0.02,0.09-0.03,0.14-0.05c0.04-0.01,0.07-0.03,0.11-0.04c0.05-0.02,0.1-0.04,0.15-0.05
			c0.02-0.01,0.09-0.03,0.11-0.04c0.05-0.02,0.1-0.03,0.15-0.05c0.04-0.01,0.08-0.03,0.12-0.04c0.05-0.02,0.09-0.03,0.14-0.05
			c0.04-0.01,0.08-0.03,0.12-0.04c0.05-0.02,0.09-0.03,0.14-0.05c0.04-0.01,0.08-0.03,0.12-0.04c0.05-0.02,0.1-0.04,0.15-0.05
			c0.04-0.01,0.06-0.02,0.1-0.04c0.06-0.02,0.12-0.04,0.19-0.07c0.02-0.01,0.05-0.02,0.07-0.03c0.09-0.03,0.17-0.06,0.26-0.09
			c0.02-0.01,0.03-0.01,0.05-0.02c0.07-0.02,0.14-0.05,0.21-0.07c0.02-0.01,0.07-0.02,0.09-0.03c0.06-0.02,0.11-0.04,0.17-0.06
			c0.04-0.01,0.07-0.02,0.11-0.04c0.05-0.02,0.1-0.04,0.15-0.05c0.04-0.01,0.08-0.03,0.12-0.04c0.05-0.02,0.1-0.03,0.14-0.05
			c0.04-0.01,0.07-0.02,0.11-0.04c0.05-0.02,0.1-0.04,0.15-0.05c0.04-0.01,0.08-0.03,0.12-0.04c0.05-0.02,0.1-0.04,0.15-0.05
			c0.04-0.01,0.07-0.02,0.11-0.04c0.06-0.02,0.11-0.04,0.17-0.06c0.04-0.01,0.12-0.04,0.16-0.06c0.06-0.02,0.12-0.04,0.18-0.07
			c0.04-0.01,0.08-0.03,0.12-0.04c0.04-0.02,0.09-0.03,0.13-0.05c0.06-0.02,0.08-0.03,0.14-0.05c0.04-0.02,0.08-0.03,0.12-0.05
			c0.04-0.01,0.09-0.03,0.13-0.05c0.04-0.01,0.08-0.03,0.12-0.04c0.04-0.01,0.1-0.04,0.14-0.05c0.04-0.01,0.08-0.03,0.12-0.04
			c0.06-0.02,0.08-0.03,0.14-0.05c0.03-0.01,0.06-0.02,0.09-0.03c0.06-0.02,0.11-0.04,0.17-0.06c0.02-0.01,0.04-0.01,0.06-0.02
			c0.28-0.1,0.6-0.22,0.88-0.32c0.02-0.01,0.03-0.01,0.05-0.02c0.06-0.02,0.14-0.05,0.2-0.07c0.02-0.01,0.03-0.01,0.05-0.02
			c0.08-0.03,0.11-0.04,0.19-0.07c0.02-0.01,0.03-0.01,0.05-0.02c0.08-0.03,0.13-0.05,0.21-0.08c0,0,0.01,0,0.01,0
			c3.05-1.12,6.07-2.26,9.1-3.43L1244.64,1598.4L1244.64,1598.4z M1291.41,1578.12c-5.08,2.46-10.26,4.88-15.4,7.19l22.84,50.72
			c5.64-2.54,11.24-5.16,16.8-7.85L1291.41,1578.12L1291.41,1578.12z M1336.34,1554.01c-4.86,2.87-9.82,5.72-14.76,8.45l26.98,48.65
			c1.94-1.08,3.88-2.17,5.81-3.26l0,0c0.08-0.04,0.15-0.09,0.23-0.13c0.02-0.01,0.03-0.01,0.04-0.03c0.07-0.04,0.14-0.08,0.21-0.12
			c0.02-0.01,0.01-0.01,0.03-0.02c0.07-0.04,0.15-0.08,0.22-0.13l0.02-0.01c0.42-0.24,0.83-0.48,1.25-0.71l0,0
			c2.77-1.58,5.52-3.18,8.26-4.81L1336.34,1554.01L1336.34,1554.01z M1379.14,1526.25c-4.6,3.27-9.32,6.51-14.01,9.65l30.92,46.25
			c2.83-1.89,5.68-3.83,8.48-5.76c0.04-0.03,0.08-0.06,0.12-0.08c0.03-0.02,0.05-0.04,0.09-0.06c0.05-0.03,0.1-0.07,0.15-0.1
			c0.02-0.01,0.05-0.03,0.06-0.04c0.06-0.04,0.12-0.08,0.18-0.12c0.02-0.01,0.03-0.02,0.05-0.03c2.06-1.42,4.11-2.86,6.15-4.31
			L1379.14,1526.25L1379.14,1526.25z M1419.51,1495.04c-4.32,3.63-8.75,7.26-13.17,10.77l34.63,43.54c0.83-0.66,1.65-1.31,2.47-1.98
			c0.05-0.04,0.06-0.05,0.11-0.09c0.03-0.02,0.06-0.04,0.08-0.07c0.05-0.04,0.1-0.08,0.14-0.12c0.02-0.02,0.04-0.03,0.06-0.05
			c0.07-0.05,0.1-0.08,0.16-0.13c0.01-0.01,0.02-0.01,0.02-0.02c3.81-3.07,7.56-6.15,11.3-9.3L1419.51,1495.04L1419.51,1495.04z
			 M1457.17,1460.61c-4.01,3.98-8.12,7.95-12.24,11.82l38.09,40.54c1.97-1.85,3.93-3.71,5.88-5.59l0,0c0.21-0.2,0.41-0.4,0.62-0.6
			l0.03-0.03c0.05-0.05,0.11-0.1,0.16-0.16c0.02-0.01,0.05-0.05,0.06-0.06c0.04-0.04,0.09-0.09,0.13-0.13
			c0.03-0.03,0.04-0.04,0.07-0.07c0.04-0.04,0.08-0.08,0.13-0.12c0.02-0.01,0.05-0.05,0.07-0.07c0.05-0.05,0.09-0.09,0.14-0.14
			c0.03-0.03,0.03-0.03,0.06-0.06c0.06-0.05,0.11-0.11,0.17-0.16c0.03-0.03,0.03-0.03,0.06-0.06c0.05-0.05,0.11-0.11,0.16-0.16
			c0.03-0.03,0.03-0.03,0.06-0.06c0.05-0.04,0.09-0.09,0.14-0.13c0.02-0.01,0.06-0.06,0.07-0.07c0.04-0.04,0.08-0.08,0.12-0.11
			c0.03-0.03,0.06-0.05,0.09-0.08c0.03-0.03,0.07-0.07,0.1-0.1c0.03-0.03,0.07-0.07,0.1-0.1c0.03-0.03,0.06-0.06,0.1-0.09
			c0.03-0.03,0.06-0.06,0.09-0.09c0.04-0.04,0.09-0.08,0.13-0.13c0.03-0.03,0.04-0.04,0.07-0.06c0.06-0.06,0.13-0.13,0.19-0.19
			c0.02-0.01,0.02-0.02,0.04-0.03c0.05-0.05,0.1-0.1,0.16-0.15c0.03-0.03,0.04-0.04,0.07-0.07c0.04-0.04,0.09-0.08,0.13-0.13
			c0.03-0.03,0.05-0.05,0.08-0.07c0.04-0.04,0.07-0.07,0.11-0.11c0.03-0.03,0.06-0.06,0.09-0.09c0.03-0.03,0.06-0.06,0.1-0.09
			c0.04-0.04,0.06-0.06,0.1-0.1c0.03-0.03,0.06-0.05,0.08-0.08c0.04-0.04,0.06-0.06,0.11-0.11c0.03-0.03,0.06-0.05,0.08-0.08
			c0.07-0.07,0.17-0.17,0.25-0.24c0.01-0.01,0.03-0.02,0.04-0.04c0.04-0.04,0.09-0.09,0.14-0.13c0.02-0.02,0.03-0.03,0.05-0.05
			c0.04-0.04,0.08-0.08,0.12-0.12c0.02-0.02,0.05-0.05,0.07-0.07c0.03-0.03,0.09-0.09,0.12-0.12c0.02-0.02,0.04-0.04,0.06-0.06
			c0.04-0.04,0.08-0.08,0.13-0.13c0.02-0.02,0.03-0.03,0.05-0.05c0.34-0.34,0.7-0.69,1.04-1.03l0,0c0.37-0.37,0.74-0.74,1.12-1.11
			L1457.17,1460.61L1457.17,1460.61z M1491.88,1423.19c-3.67,4.29-7.44,8.6-11.22,12.79l41.3,37.27c0.78-0.86,1.55-1.72,2.32-2.58
			l0.01-0.01c0.06-0.07,0.12-0.14,0.18-0.2c0.01-0.02,0,0,0.01-0.01c0.06-0.07,0.12-0.14,0.18-0.21l0.01-0.01
			c0.13-0.14,0.25-0.28,0.38-0.43c0.01-0.02,0.03-0.03,0.04-0.05c0.05-0.05,0.09-0.1,0.14-0.15c0.03-0.03,0.05-0.05,0.07-0.08
			c0.03-0.04,0.07-0.08,0.1-0.12c0.03-0.03,0.06-0.07,0.09-0.1c0.03-0.03,0.06-0.06,0.08-0.09c0.03-0.03,0.07-0.08,0.1-0.11
			c0.02-0.03,0.05-0.05,0.07-0.08c0.04-0.05,0.08-0.09,0.12-0.14c0.01-0.01,0.01-0.01,0.02-0.02c2.8-3.15,5.56-6.34,8.3-9.54
			L1491.88,1423.19L1491.88,1423.19z M1523.38,1383.05c-3.3,4.58-6.71,9.18-10.13,13.67l44.23,33.74c2.28-2.99,4.54-6,6.77-9.03
			l0.01-0.02c0.05-0.07,0.1-0.13,0.14-0.2c0.01-0.02,0.02-0.03,0.04-0.05c0.04-0.06,0.09-0.12,0.13-0.18
			c0.01-0.02,0.02-0.03,0.04-0.05c0.04-0.06,0.09-0.12,0.13-0.17c0.01-0.02,0.03-0.04,0.04-0.06c0.11-0.14,0.21-0.29,0.32-0.43
			c0.04-0.05,0.05-0.07,0.09-0.12c0.02-0.03,0.05-0.06,0.07-0.09c0.04-0.05,0.06-0.08,0.1-0.13c0.02-0.03,0.04-0.05,0.06-0.08
			c0.02-0.03,0.08-0.11,0.11-0.15c0.01-0.02,0.03-0.04,0.04-0.06c0.04-0.05,0.08-0.11,0.12-0.17c0-0.01,0.01-0.01,0.01-0.02
			c0.3-0.41,0.58-0.8,0.88-1.21c0,0,0,0,0-0.01c0.05-0.07,0.09-0.12,0.14-0.19c0.01-0.01,0.01-0.01,0.02-0.02
			c0.23-0.32,0.47-0.64,0.7-0.97c0.01-0.02,0.02-0.03,0.04-0.05c0.04-0.05,0.06-0.09,0.1-0.14c0.02-0.03,0.04-0.06,0.07-0.09
			c0.02-0.03,0.06-0.08,0.09-0.12c0.03-0.03,0.05-0.07,0.07-0.1c0.02-0.03,0.05-0.07,0.08-0.1c0.04-0.05,0.07-0.1,0.11-0.15
			c0.01-0.02,0.03-0.04,0.04-0.06c0.17-0.23,0.33-0.46,0.5-0.69L1523.38,1383.05L1523.38,1383.05z M1551.45,1340.46
			c-2.91,4.83-5.92,9.7-8.96,14.45l46.87,29.97c0.52-0.81,1.04-1.63,1.55-2.44l0-0.01c0.05-0.08,0.1-0.16,0.15-0.23l0.01-0.01
			c0.04-0.07,0.09-0.14,0.13-0.21c0.01-0.02,0.02-0.03,0.03-0.05c0.04-0.07,0.08-0.13,0.12-0.2c0.01-0.02,0.01-0.02,0.03-0.04
			c0.05-0.07,0.09-0.15,0.14-0.22c0.03-0.05,0.06-0.09,0.09-0.14c0.02-0.03,0.03-0.06,0.05-0.08c0.04-0.07,0.07-0.1,0.11-0.18
			c0.01-0.01,0.01-0.02,0.02-0.03c0.04-0.07,0.08-0.12,0.12-0.19c0.01-0.01,0.01-0.02,0.02-0.03c0.04-0.07,0.08-0.13,0.12-0.2
			c0,0,0,0,0-0.01c0.94-1.5,1.87-2.99,2.81-4.5c0,0,0,0,0,0c0.04-0.07,0.08-0.13,0.12-0.2c0.01-0.01,0.01-0.02,0.02-0.03
			c0.04-0.07,0.07-0.11,0.11-0.18c0.01-0.02,0.02-0.04,0.03-0.05c0.03-0.05,0.07-0.11,0.1-0.17c0.01-0.02,0.03-0.04,0.04-0.07
			c0.03-0.05,0.06-0.1,0.09-0.15c0.02-0.03,0.04-0.06,0.06-0.09c0.06-0.09,0.1-0.17,0.16-0.26c0.02-0.03,0.04-0.07,0.06-0.1
			c0.02-0.04,0.03-0.05,0.05-0.08c0.03-0.05,0.06-0.1,0.09-0.15c0.02-0.04,0.04-0.06,0.06-0.09c0.03-0.05,0.06-0.1,0.09-0.15
			c0.01-0.02,0.04-0.06,0.05-0.08c0.03-0.05,0.06-0.1,0.1-0.16c0.02-0.04,0.03-0.05,0.05-0.08c0.03-0.06,0.07-0.11,0.1-0.17
			c0.01-0.02,0.03-0.04,0.04-0.06c0.04-0.07,0.09-0.15,0.13-0.22l0-0.01c0.91-1.48,1.81-2.97,2.7-4.46L1551.45,1340.46
			L1551.45,1340.46z M1575.89,1295.7c-2.49,5.06-5.1,10.15-7.73,15.14l49.19,25.98c0.45-0.85,0.9-1.7,1.34-2.55l0.03-0.05
			c0.03-0.06,0.06-0.12,0.1-0.19c0.01-0.02,0.04-0.08,0.05-0.1c0.02-0.05,0.05-0.09,0.07-0.14c0.02-0.04,0.05-0.09,0.07-0.13
			c0.02-0.03,0.03-0.06,0.05-0.1c0.03-0.06,0.05-0.1,0.08-0.15c0.01-0.02,0.02-0.04,0.03-0.06c1.59-3.06,3.17-6.14,4.71-9.23
			c0.01-0.01,0.01-0.02,0.02-0.04c0.03-0.06,0.07-0.13,0.09-0.19c0.02-0.04,0.04-0.08,0.06-0.12c0.02-0.04,0.04-0.07,0.05-0.11
			c0.04-0.08,0.08-0.17,0.12-0.25c0.01-0.02,0,0,0.01-0.01c0.52-1.03,1.03-2.07,1.54-3.1L1575.89,1295.7L1575.89,1295.7z
			 M1596.52,1249.09c-2.06,5.25-4.23,10.54-6.44,15.73l51.18,21.8c1.17-2.75,2.32-5.51,3.46-8.27l0.01-0.02
			c0.03-0.08,0.06-0.15,0.09-0.23c0.01-0.02,0.01-0.03,0.02-0.05c0.03-0.08,0.06-0.15,0.09-0.23l0.01-0.03
			c0.11-0.26,0.21-0.52,0.32-0.78c0.02-0.04,0.01-0.04,0.03-0.08c0.02-0.06,0.05-0.12,0.07-0.18c0.01-0.02,0.03-0.08,0.04-0.1
			c0.02-0.05,0.04-0.1,0.06-0.15c0.02-0.04,0.04-0.09,0.05-0.13c0.02-0.04,0.03-0.08,0.05-0.11c0.02-0.04,0.04-0.1,0.06-0.14
			c0.01-0.03,0.03-0.07,0.04-0.1c0.02-0.06,0.04-0.1,0.06-0.16c0.01-0.03,0.02-0.05,0.03-0.08c0.02-0.06,0.04-0.11,0.07-0.16
			c0.01-0.03,0.02-0.05,0.03-0.08c0.08-0.2,0.17-0.41,0.25-0.61c0.01-0.01,0.01-0.03,0.02-0.04c0.02-0.06,0.04-0.11,0.07-0.17
			c0.01-0.03,0.02-0.06,0.04-0.09c0.02-0.06,0.04-0.1,0.06-0.16c0.01-0.03,0.02-0.06,0.04-0.09c0.02-0.04,0.05-0.11,0.06-0.15
			c0.01-0.04,0.03-0.07,0.04-0.11c0.02-0.04,0.04-0.1,0.06-0.14c0.02-0.04,0.03-0.08,0.05-0.11c0.02-0.06,0.03-0.08,0.05-0.14
			c0.02-0.04,0.03-0.09,0.05-0.13c0.02-0.04,0.04-0.09,0.05-0.13c0.02-0.05,0.04-0.11,0.06-0.16c0.02-0.04,0.04-0.09,0.05-0.13
			c0.03-0.07,0.06-0.14,0.09-0.21c0.01-0.02,0.01-0.03,0.02-0.05c0.03-0.07,0.06-0.14,0.08-0.21c0.01-0.02,0.01-0.04,0.02-0.06
			c0.03-0.07,0.06-0.14,0.09-0.22c0.01-0.02,0.01-0.01,0.01-0.03c0.03-0.08,0.07-0.16,0.1-0.25l0-0.01c0.36-0.9,0.71-1.79,1.07-2.69
			L1596.52,1249.09L1596.52,1249.09z M1613.19,1200.91c-1.62,5.4-3.34,10.85-5.11,16.21l52.82,17.46c1.94-5.86,3.8-11.76,5.57-17.69
			L1613.19,1200.91L1613.19,1200.91z M1625.78,1151.53c-1.16,5.52-2.42,11.1-3.74,16.58l54.09,12.99c0.37-1.54,0.74-3.11,1.1-4.65
			c0.01-0.02,0.01-0.04,0.02-0.07c0.01-0.06,0.02-0.1,0.04-0.17c0.01-0.04,0.02-0.08,0.03-0.11c0.01-0.04,0.02-0.09,0.03-0.13
			c0.01-0.06,0.03-0.11,0.04-0.17c0-0.02,0.01-0.06,0.02-0.08c0.02-0.08,0.04-0.16,0.06-0.24l0-0.01c0.96-4.14,1.87-8.29,2.75-12.45
			L1625.78,1151.53L1625.78,1151.53z M1634.21,1101.23c-0.7,5.6-1.49,11.27-2.35,16.84l54.99,8.44c0.18-1.19,0.36-2.39,0.54-3.58
			c0-0.02,0.01-0.04,0.01-0.06c0.01-0.07,0.02-0.12,0.03-0.18c0.01-0.03,0.01-0.07,0.01-0.1c0.01-0.04,0.02-0.1,0.02-0.15
			c0.01-0.05,0.02-0.1,0.02-0.15c0.01-0.04,0.01-0.06,0.02-0.11c0.01-0.07,0.02-0.13,0.03-0.2c0-0.02,0.01-0.04,0.01-0.06
			c0.64-4.38,1.24-8.77,1.8-13.18c0.01-0.04,0.01-0.05,0.01-0.09c0.01-0.06,0.01-0.12,0.02-0.18c0.01-0.04,0.01-0.09,0.02-0.13
			c0.01-0.04,0.01-0.09,0.02-0.13c0-0.02,0.01-0.04,0.01-0.06L1634.21,1101.23L1634.21,1101.23z M1638.47,1050.38
			c-0.24,5.65-0.56,11.36-0.95,16.99l55.5,3.87c0.43-6.16,0.78-12.31,1.04-18.51L1638.47,1050.38L1638.47,1050.38z M1694.14,997.1
			l-55.59,2.18c0.22,5.64,0.37,11.37,0.43,17.02l55.63-0.67c-0.05-4.26-0.14-8.5-0.27-12.74l0-0.04c0-0.08,0-0.15-0.01-0.23
			c0-0.02,0-0.05,0-0.07c0-0.07,0-0.13-0.01-0.2c0-0.02,0-0.07,0-0.1c0-0.06,0-0.11-0.01-0.17c0-0.02,0-0.11,0-0.13
			c0-0.04,0-0.07,0-0.11c0-0.07,0-0.11-0.01-0.18c0-0.02,0-0.04,0-0.06C1694.25,1000.11,1694.2,998.6,1694.14,997.1L1694.14,997.1z
			 M1689.68,941.67l-55.22,6.74c0.68,5.6,1.3,11.29,1.83,16.91l55.39-5.22c-0.17-1.79-0.34-3.58-0.53-5.36
			c0-0.02-0.01-0.05-0.01-0.07c-0.01-0.07-0.01-0.1-0.02-0.16c0-0.04-0.01-0.08-0.01-0.12c0-0.04-0.01-0.08-0.01-0.13
			c-0.01-0.06-0.01-0.12-0.02-0.18c0-0.02,0-0.05-0.01-0.07c-0.01-0.08-0.02-0.16-0.03-0.24l0-0.02
			C1690.62,949.71,1690.17,945.68,1689.68,941.67L1689.68,941.67z M1680.65,886.79l-54.47,11.3c1.15,5.52,2.23,11.14,3.22,16.69
			l54.76-9.79c0-0.02-0.01-0.05-0.01-0.07c-0.01-0.06-0.02-0.12-0.03-0.18c-0.01-0.04-0.02-0.09-0.02-0.13
			c-0.01-0.04-0.02-0.08-0.02-0.13c-0.01-0.04-0.02-0.12-0.03-0.17c-0.01-0.03-0.01-0.06-0.02-0.09c-0.01-0.04-0.02-0.13-0.03-0.17
			c-0.01-0.03-0.01-0.06-0.02-0.09c-0.01-0.06-0.02-0.12-0.03-0.19c0-0.02-0.01-0.04-0.01-0.07c-0.01-0.06-0.03-0.14-0.04-0.2
			c0-0.02-0.01-0.03-0.01-0.05c-0.12-0.67-0.25-1.36-0.37-2.03c0,0,0,0,0,0c-0.16-0.86-0.32-1.7-0.48-2.56c0-0.01,0-0.01,0-0.02
			c-0.02-0.09-0.03-0.16-0.05-0.24c0,0,0-0.01,0-0.01c-0.02-0.09-0.03-0.16-0.05-0.24c0-0.01,0-0.01,0-0.02
			c-0.08-0.41-0.15-0.8-0.23-1.21c0-0.02-0.01-0.05-0.01-0.07c-0.01-0.04-0.02-0.1-0.03-0.14c-0.01-0.05-0.02-0.1-0.03-0.14
			c0-0.02-0.02-0.09-0.02-0.11c-0.01-0.05-0.02-0.1-0.03-0.15c-0.01-0.04-0.02-0.08-0.02-0.12c-0.01-0.05-0.02-0.11-0.03-0.16
			c-0.01-0.04-0.01-0.06-0.02-0.11c-0.01-0.06-0.02-0.12-0.03-0.18c0-0.02-0.01-0.07-0.02-0.09c-0.01-0.07-0.03-0.14-0.04-0.22
			c0-0.02-0.01-0.03-0.01-0.05C1681.85,892.64,1681.26,889.71,1680.65,886.79L1680.65,886.79z M1667.09,832.85l-53.34,15.81
			c1.6,5.41,3.15,10.91,4.6,16.36l53.76-14.31C1670.52,844.71,1668.85,838.78,1667.09,832.85L1667.09,832.85z M1649.08,780.24
			l-51.83,20.2c2.05,5.26,4.05,10.61,5.95,15.92l52.38-18.75c-0.75-2.09-1.51-4.18-2.28-6.26l-0.01-0.03
			c-0.03-0.07-0.05-0.15-0.08-0.22c-0.01-0.02-0.02-0.06-0.03-0.08c-0.02-0.06-0.04-0.12-0.07-0.18c-0.01-0.04-0.02-0.05-0.03-0.09
			c-0.02-0.06-0.04-0.11-0.06-0.17c-0.01-0.02-0.03-0.08-0.04-0.1c-0.02-0.06-0.04-0.11-0.06-0.17c-0.01-0.04-0.02-0.05-0.03-0.09
			c-0.02-0.06-0.04-0.12-0.07-0.18c-0.01-0.04-0.02-0.05-0.03-0.09c-0.03-0.08-0.06-0.17-0.09-0.25c-0.01-0.02-0.02-0.05-0.03-0.07
			c-0.02-0.06-0.04-0.12-0.07-0.18c-0.02-0.04-0.03-0.07-0.04-0.11c-0.02-0.05-0.04-0.1-0.05-0.15c-0.01-0.04-0.03-0.08-0.05-0.12
			c-0.02-0.04-0.03-0.08-0.05-0.12c-0.02-0.04-0.04-0.1-0.05-0.14c-0.02-0.04-0.03-0.08-0.05-0.12c-0.02-0.04-0.03-0.09-0.05-0.13
			c-0.02-0.04-0.03-0.08-0.05-0.12c-0.02-0.06-0.03-0.07-0.05-0.13c-0.02-0.04-0.03-0.09-0.05-0.13c-0.02-0.04-0.03-0.09-0.05-0.13
			c-0.01-0.04-0.03-0.08-0.04-0.12c-0.02-0.06-0.05-0.14-0.08-0.2c-0.02-0.06-0.05-0.12-0.07-0.18c-0.02-0.04-0.02-0.05-0.03-0.09
			c-0.02-0.06-0.04-0.12-0.07-0.17c-0.01-0.02-0.03-0.07-0.03-0.09c-0.02-0.06-0.04-0.11-0.06-0.16c-0.01-0.02-0.03-0.08-0.04-0.1
			c-0.02-0.05-0.04-0.11-0.06-0.16c-0.02-0.04-0.02-0.06-0.04-0.1c-0.02-0.06-0.04-0.11-0.06-0.17c-0.01-0.02-0.02-0.06-0.03-0.08
			c-0.03-0.07-0.05-0.14-0.08-0.2c-0.01-0.02-0.01-0.04-0.02-0.06C1650.61,784.19,1649.85,782.21,1649.08,780.24L1649.08,780.24z
			 M1626.74,729.31l-49.97,24.45c2.48,5.07,4.92,10.24,7.26,15.37l50.63-23.05c-0.16-0.35-0.32-0.7-0.48-1.05
			c-0.01-0.02,0,0-0.01-0.02c-0.03-0.08-0.07-0.15-0.1-0.23c-0.01-0.02-0.01-0.03-0.02-0.05c-0.03-0.06-0.06-0.13-0.09-0.19
			c-0.01-0.02-0.03-0.06-0.04-0.08c-0.03-0.05-0.05-0.11-0.08-0.16c-0.02-0.04-0.03-0.06-0.04-0.09c-0.02-0.04-0.04-0.08-0.06-0.12
			C1631.47,739.12,1629.14,734.2,1626.74,729.31L1626.74,729.31z M1600.25,680.41l-47.77,28.51c2.89,4.85,5.76,9.8,8.51,14.72
			l48.54-27.18c-0.12-0.22-0.25-0.45-0.38-0.67c-0.01-0.02-0.02-0.04-0.03-0.05c-0.03-0.06-0.04-0.07-0.07-0.13
			c-0.02-0.04-0.04-0.08-0.07-0.12c-0.01-0.02-0.05-0.08-0.06-0.1c-0.03-0.05-0.06-0.11-0.09-0.16c-0.01-0.02-0.02-0.04-0.03-0.06
			c-0.04-0.07-0.08-0.14-0.11-0.2c-0.01-0.02-0.01-0.02-0.02-0.04c-1.18-2.1-2.37-4.19-3.58-6.27c-0.01-0.02-0.02-0.03-0.03-0.05
			c-0.04-0.06-0.07-0.12-0.11-0.18c-0.02-0.04-0.03-0.05-0.05-0.09c-0.03-0.05-0.05-0.09-0.08-0.14c-0.02-0.04-0.04-0.06-0.06-0.1
			c-0.02-0.04-0.05-0.09-0.07-0.13c-0.03-0.05-0.04-0.07-0.07-0.12c-0.02-0.03-0.03-0.06-0.05-0.09c-0.03-0.05-0.06-0.1-0.09-0.15
			c0-0.01-0.01-0.02-0.01-0.02C1603.07,685.18,1601.67,682.8,1600.25,680.41L1600.25,680.41z M1569.79,633.87l-45.25,32.36
			c3.28,4.59,6.55,9.29,9.7,13.97l46.12-31.1C1576.91,643.97,1573.39,638.9,1569.79,633.87L1569.79,633.87z M1535.6,590.01
			l-42.43,35.98c3.65,4.31,7.29,8.72,10.83,13.13l43.4-34.8c-0.41-0.51-0.79-0.98-1.2-1.49c0,0-0.01-0.01-0.01-0.01
			c-0.05-0.07-0.09-0.11-0.14-0.18c-0.01-0.01-0.02-0.02-0.02-0.03c-0.05-0.07-0.08-0.1-0.13-0.16c-0.02-0.02-0.03-0.04-0.05-0.06
			c-0.04-0.05-0.07-0.09-0.11-0.14c-0.03-0.03-0.05-0.06-0.08-0.09c-0.03-0.03-0.06-0.08-0.09-0.11c-0.12-0.14-0.23-0.29-0.35-0.43
			l-0.01-0.01c-0.06-0.07-0.11-0.14-0.17-0.21l-0.01-0.01C1541.93,597.55,1538.78,593.76,1535.6,590.01L1535.6,590.01z
			 M1497.91,549.11l-39.32,39.35c3.99,3.99,7.99,8.09,11.87,12.19l40.39-38.26c-3.42-3.61-6.9-7.2-10.39-10.73
			c-0.02-0.02-0.03-0.03-0.05-0.05c-0.04-0.04-0.06-0.06-0.11-0.11c-0.03-0.03-0.07-0.07-0.1-0.1c-0.03-0.03-0.04-0.05-0.07-0.07
			c-0.04-0.04-0.08-0.08-0.13-0.13c-0.03-0.03-0.03-0.03-0.06-0.06c-0.05-0.06-0.11-0.11-0.16-0.17l-0.02-0.02
			C1499.13,550.34,1498.52,549.72,1497.91,549.11L1497.91,549.11z M1456.98,511.45l-35.95,42.46c4.31,3.65,8.63,7.41,12.83,11.17
			l37.1-41.45c-0.03-0.03-0.05-0.04-0.08-0.07c-0.01-0.01-0.03-0.03-0.04-0.04c-0.05-0.04-0.1-0.09-0.14-0.13
			c-0.02-0.02-0.04-0.04-0.06-0.05c-0.05-0.04-0.09-0.08-0.14-0.12c-0.01-0.01-0.03-0.02-0.04-0.03c-0.16-0.14-0.32-0.29-0.48-0.43
			c-0.02-0.02-0.04-0.04-0.06-0.05c-0.05-0.04-0.08-0.07-0.13-0.12c-0.02-0.02-0.05-0.04-0.07-0.06c-0.05-0.04-0.08-0.07-0.12-0.11
			c-0.03-0.02-0.05-0.05-0.08-0.07c-0.03-0.03-0.09-0.08-0.12-0.11c-0.02-0.02-0.05-0.04-0.07-0.07c-0.05-0.04-0.08-0.07-0.13-0.11
			c-0.02-0.02-0.05-0.04-0.07-0.06c-0.05-0.04-0.08-0.07-0.13-0.12c-0.02-0.01-0.03-0.03-0.05-0.04c-0.09-0.08-0.21-0.19-0.3-0.27
			c-0.01-0.01-0.02-0.02-0.03-0.03c-0.05-0.04-0.1-0.09-0.15-0.13c-0.02-0.01-0.03-0.03-0.05-0.04c-0.05-0.04-0.1-0.09-0.15-0.13
			c-0.02-0.01-0.03-0.03-0.04-0.04c-0.05-0.04-0.1-0.09-0.15-0.13c-0.02-0.02-0.03-0.03-0.05-0.05c-0.05-0.04-0.11-0.1-0.16-0.14
			c-0.01-0.01-0.01-0.01-0.02-0.02c-2.83-2.5-5.66-4.96-8.53-7.41c-0.01-0.01-0.01-0.01-0.02-0.02c-0.06-0.05-0.11-0.1-0.18-0.15
			c-0.01-0.01-0.01-0.01-0.02-0.02c-0.06-0.05-0.11-0.09-0.17-0.15c-0.01,0-0.01-0.01-0.02-0.01c-0.1-0.08-0.2-0.17-0.3-0.25
			c-0.03-0.02-0.05-0.05-0.08-0.07c-0.03-0.03-0.03-0.03-0.07-0.06c-0.05-0.04-0.1-0.09-0.15-0.13c-0.02-0.01-0.03-0.03-0.05-0.04
			c-0.06-0.05-0.12-0.1-0.18-0.16l-0.02-0.01C1457.71,512.07,1457.35,511.76,1456.98,511.45L1456.98,511.45z M1413.09,477.3
			l-32.33,45.28c4.59,3.28,9.2,6.67,13.71,10.07l33.56-44.37c-1.51-1.14-3.03-2.28-4.55-3.41c0,0,0,0,0,0
			c-0.07-0.05-0.12-0.09-0.19-0.14c-0.01,0-0.01-0.01-0.02-0.01c-0.07-0.05-0.11-0.08-0.18-0.13c-0.02-0.01-0.03-0.02-0.05-0.03
			c-0.05-0.04-0.11-0.08-0.16-0.12c-0.02-0.01-0.03-0.03-0.05-0.04c-0.05-0.04-0.11-0.08-0.16-0.12c-0.02-0.02-0.04-0.03-0.06-0.05
			c-0.08-0.06-0.14-0.1-0.23-0.17c-0.05-0.04-0.1-0.07-0.14-0.11c-0.02-0.01-0.03-0.02-0.04-0.03c-0.06-0.05-0.12-0.09-0.18-0.14
			c-0.02-0.01-0.03-0.02-0.04-0.03c-0.06-0.05-0.13-0.09-0.19-0.14l-0.03-0.03c-0.07-0.05-0.13-0.1-0.2-0.15
			c-0.02-0.01-0.01-0.01-0.03-0.02C1418.73,481.36,1415.92,479.32,1413.09,477.3L1413.09,477.3z M1366.53,446.88l-28.47,47.79
			c4.85,2.89,9.72,5.88,14.49,8.9l29.78-46.99C1377.11,453.28,1371.85,450.05,1366.53,446.88L1366.53,446.88z M1317.61,420.43
			l-24.41,49.99c5.07,2.47,10.17,5.05,15.17,7.67l25.78-49.3c-0.68-0.36-1.37-0.71-2.05-1.07l0,0c-0.08-0.04-0.17-0.09-0.25-0.13
			l0,0c-0.08-0.04-0.15-0.08-0.23-0.12c-0.02-0.01-0.01-0.01-0.03-0.02c-0.08-0.04-0.16-0.08-0.24-0.12
			c-0.06-0.03-0.13-0.07-0.19-0.1c-0.01-0.01-0.03-0.01-0.04-0.02c-0.06-0.03-0.13-0.06-0.18-0.09c-0.02-0.01-0.04-0.02-0.05-0.03
			c-0.08-0.04-0.12-0.06-0.19-0.1c-0.01,0-0.02-0.01-0.03-0.01c-0.08-0.04-0.14-0.07-0.21-0.11c0,0,0,0-0.01,0
			c-1.03-0.53-2.09-1.07-3.13-1.6c-0.02-0.01-0.03-0.02-0.05-0.03c-0.06-0.03-0.12-0.06-0.18-0.09c-0.02-0.01-0.04-0.02-0.06-0.03
			c-0.06-0.03-0.11-0.05-0.16-0.08c-0.03-0.02-0.06-0.03-0.09-0.05c-0.04-0.02-0.1-0.05-0.14-0.07c-0.04-0.02-0.09-0.05-0.13-0.07
			c-0.02-0.01-0.07-0.04-0.09-0.05c-0.07-0.03-0.14-0.07-0.21-0.11c-0.02-0.01-0.01-0.01-0.03-0.02
			C1323.33,423.24,1320.48,421.82,1317.61,420.43L1317.61,420.43z M1266.66,398.13l-20.16,51.85c5.26,2.04,10.56,4.19,15.75,6.38
			l21.59-51.27c-3.73-1.57-7.48-3.11-11.25-4.62l0,0c-0.36-0.14-0.71-0.28-1.07-0.43c-0.02-0.01-0.01,0-0.03-0.01
			c-0.07-0.03-0.15-0.06-0.22-0.09c-0.02-0.01-0.07-0.03-0.09-0.04c-0.05-0.02-0.1-0.04-0.15-0.06c-0.04-0.02-0.09-0.04-0.13-0.05
			c-0.04-0.02-0.08-0.03-0.12-0.05c-0.04-0.02-0.1-0.04-0.14-0.06c-0.03-0.01-0.07-0.03-0.1-0.04c-0.06-0.02-0.11-0.04-0.17-0.07
			c-0.01,0-0.02-0.01-0.04-0.01C1269.11,399.08,1267.89,398.61,1266.66,398.13L1266.66,398.13z M1214.03,380.16l-15.76,53.35
			c5.41,1.6,10.87,3.29,16.23,5.04l17.24-52.89c-1.8-0.59-3.58-1.16-5.39-1.73c-0.01,0-0.01,0-0.02-0.01
			c-0.06-0.02-0.14-0.05-0.2-0.06c-0.02-0.01-0.05-0.02-0.07-0.02c-0.04-0.01-0.13-0.04-0.17-0.05c-0.04-0.01-0.07-0.02-0.11-0.03
			c-0.04-0.01-0.1-0.03-0.14-0.04c-0.06-0.02-0.11-0.04-0.17-0.05c-0.04-0.01-0.04-0.01-0.08-0.03
			C1221.61,382.44,1217.83,381.28,1214.03,380.16L1214.03,380.16z M1160.08,366.64l-11.26,54.48c5.52,1.14,11.11,2.38,16.6,3.67
			l12.77-54.15c-4.39-1.03-8.79-2.03-13.21-2.97c-0.01,0-0.02,0-0.03-0.01c-0.06-0.01-0.13-0.03-0.19-0.04
			c-0.03-0.01-0.05-0.01-0.08-0.02c-0.06-0.01-0.08-0.02-0.15-0.03c-0.05-0.01-0.1-0.02-0.15-0.03c-0.02,0-0.07-0.01-0.09-0.02
			c-0.07-0.02-0.15-0.03-0.22-0.05l-0.03-0.01C1162.73,367.19,1161.4,366.92,1160.08,366.64L1160.08,366.64z M1105.19,357.66
			l-6.7,55.23c5.6,0.68,11.27,1.45,16.85,2.28l8.22-55.02c-3.08-0.46-6.17-0.9-9.27-1.32c0,0-0.01,0-0.01,0
			c-0.09-0.01-0.17-0.02-0.25-0.03c0,0,0,0,0,0c-0.44-0.06-0.85-0.11-1.29-0.17c-0.01,0-0.01,0-0.02,0
			c-0.07-0.01-0.13-0.02-0.2-0.03c-0.03,0-0.05-0.01-0.08-0.01c-0.07-0.01-0.1-0.01-0.17-0.02c-0.04,0-0.07-0.01-0.1-0.01
			c-0.07-0.01-0.1-0.01-0.17-0.02c-0.04,0-0.07-0.01-0.11-0.01c-0.04-0.01-0.11-0.01-0.15-0.02s-0.09-0.01-0.13-0.02
			c-0.04-0.01-0.09-0.01-0.13-0.02c-0.05-0.01-0.11-0.01-0.16-0.02c-0.02,0-0.09-0.01-0.11-0.01c-0.06-0.01-0.12-0.02-0.19-0.02
			c-0.02,0-0.07-0.01-0.09-0.01c-0.08-0.01-0.16-0.02-0.24-0.03l-0.03,0C1108.84,358.11,1107.02,357.88,1105.19,357.66
			L1105.19,357.66z M1049.76,353.25l-2.13,55.59c5.65,0.22,11.37,0.51,17,0.88l3.65-55.51c-4.42-0.29-8.84-0.54-13.28-0.74
			c-0.02,0,0,0-0.03,0c-0.08,0-0.16-0.01-0.24-0.01c-0.02,0-0.03,0-0.05,0c-0.06,0-0.13-0.01-0.19-0.01c-0.04,0-0.06,0-0.11,0
			c-0.04,0-0.08,0-0.12-0.01C1052.77,353.37,1051.24,353.31,1049.76,353.25L1049.76,353.25z"/>
	</g>
	<polygon class="st4" points="1551.61,513.76 943.8,941.5 1103.37,1106.15 	"/>
	<polygon class="st0" points="496.4,1534.76 943.8,941.5 1103.37,1106.15 	"/>
</g>
</svg>
