<?xml version="1.0" standalone="no"?>
<!DOCTYPE svg PUBLIC "-//W3C//DTD SVG 20010904//EN"
 "http://www.w3.org/TR/2001/REC-SVG-20010904/DTD/svg10.dtd">
<svg version="1.0" xmlns="http://www.w3.org/2000/svg"
 width="512.000000pt" height="512.000000pt" viewBox="0 0 512.000000 512.000000"
 preserveAspectRatio="xMidYMid meet">
<metadata>
Created by potrace 1.14, written by Peter Selinger 2001-2017
</metadata>
<g transform="translate(0.000000,512.000000) scale(0.100000,-0.100000)"
fill="#000000" stroke="none">
<path d="M390 5104 c-30 -8 -80 -26 -110 -41 -72 -35 -188 -151 -223 -223 -61
-126 -57 23 -57 -2280 0 -2303 -4 -2154 57 -2280 35 -72 151 -188 223 -223
126 -61 -23 -57 2280 -57 2303 0 2154 -4 2280 57 72 35 188 151 223 223 61
126 57 -23 57 2280 0 2303 4 2154 -57 2280 -35 72 -151 188 -223 223 -127 61
23 57 -2285 56 -1816 0 -2118 -2 -2165 -15z m3419 -1239 c96 -23 192 -78 256
-147 103 -111 135 -214 135 -430 l0 -139 -32 3 -33 3 -6 150 c-8 171 -21 224
-77 311 -87 133 -219 194 -420 194 -262 0 -385 -91 -464 -340 -20 -66 -23 -94
-22 -235 0 -133 4 -170 21 -222 26 -79 99 -181 160 -226 56 -41 196 -112 320
-163 254 -104 402 -194 466 -282 51 -69 65 -102 88 -199 18 -77 20 -110 16
-263 -4 -141 -9 -190 -26 -250 -73 -248 -256 -383 -536 -397 -314 -15 -495
118 -566 415 -22 91 -43 370 -29 385 4 5 20 7 36 5 l29 -3 7 -145 c10 -219 54
-355 149 -463 156 -178 557 -165 734 24 95 102 135 237 135 458 0 223 -36 330
-150 441 -67 66 -161 117 -388 211 -211 87 -301 139 -382 219 -122 122 -167
263 -157 500 6 159 30 262 83 359 63 117 157 191 285 225 74 20 285 20 368 1z
m-2464 -1217 c203 -669 372 -1219 375 -1222 3 -2 174 546 380 1220 l374 1224
33 0 33 0 0 -1300 0 -1300 -35 0 -35 0 -2 1166 -3 1166 -355 -1164 -355 -1163
-34 0 -33 0 -357 1167 -356 1168 -3 -1170 -2 -1170 -35 0 -35 0 0 1301 0 1300
37 -3 37 -3 371 -1217z"/>
</g>
</svg>
