<?xml version="1.0" standalone="no"?>
<!DOCTYPE svg PUBLIC "-//W3C//DTD SVG 20010904//EN"
 "http://www.w3.org/TR/2001/REC-SVG-20010904/DTD/svg10.dtd">
<svg version="1.0" xmlns="http://www.w3.org/2000/svg"
 width="512.000000pt" height="512.000000pt" viewBox="0 0 512.000000 512.000000"
 preserveAspectRatio="xMidYMid meet">
<metadata>
Created by potrace 1.14, written by Peter Selinger 2001-2017
</metadata>
<g transform="translate(0.000000,512.000000) scale(0.100000,-0.100000)"
fill="#000000" stroke="none">
<path d="M390 5104 c-30 -8 -80 -26 -110 -41 -72 -35 -188 -151 -223 -223 -61
-126 -57 23 -57 -2280 0 -2303 -4 -2154 57 -2280 35 -72 151 -188 223 -223
126 -61 -23 -57 2280 -57 2303 0 2154 -4 2280 57 72 35 188 151 223 223 61
126 57 -23 57 2280 0 2303 4 2154 -57 2280 -35 72 -151 188 -223 223 -127 61
23 57 -2285 56 -1816 0 -2118 -2 -2165 -15z m3520 -1114 c235 -29 449 -113
703 -277 l98 -63 -81 -120 -81 -120 -52 38 c-323 235 -655 333 -935 276 -167
-34 -312 -135 -374 -262 -32 -64 -33 -71 -33 -187 1 -143 19 -201 90 -281 110
-126 223 -174 735 -309 402 -106 591 -224 690 -428 73 -152 89 -360 40 -535
-77 -276 -313 -492 -626 -572 -211 -54 -499 -42 -716 31 -163 54 -366 171
-525 303 l-81 68 90 114 c50 63 92 114 95 114 2 0 41 -31 86 -69 188 -158 340
-248 504 -298 80 -24 104 -27 253 -27 160 -1 168 0 251 30 208 74 345 222 380
409 12 63 7 176 -10 235 -19 64 -75 143 -136 193 -106 85 -214 127 -568 222
-133 35 -273 75 -312 88 -393 136 -563 368 -542 737 19 314 219 553 547 654
47 15 112 30 145 35 87 12 267 13 365 1z m-2855 -695 c160 -366 292 -665 295
-665 3 0 135 299 295 665 l290 665 187 0 188 0 0 -1400 0 -1400 -140 0 -140 0
-2 1203 -3 1203 -320 -740 c-176 -407 -329 -760 -340 -783 l-20 -44 -340 787
-340 786 -3 -1206 -2 -1206 -135 0 -135 0 0 1400 0 1400 188 0 187 0 290 -665z"/>
</g>
</svg>
